<?xml version="1.0" encoding="UTF-8" standalone="no"?>
<!DOCTYPE svg PUBLIC "-//W3C//DTD SVG 1.1//EN"
 "http://www.w3.org/Graphics/SVG/1.1/DTD/svg11.dtd">
<!-- Generated by graphviz version 2.43.0 (0)
 -->
<!-- Title: List Pages: 1 -->
<svg width="610pt" height="294pt"
 viewBox="0.00 0.00 609.50 294.00" xmlns="http://www.w3.org/2000/svg" xmlns:xlink="http://www.w3.org/1999/xlink">
<g id="graph0" class="graph" transform="scale(1 1) rotate(0) translate(4 290)">
<title>List</title>
<polygon fill="#1f1f1f" stroke="transparent" points="-4,4 -4,-290 605.5,-290 605.5,4 -4,4"/>
<!-- elem_zero -->
<g id="node1" class="node">
<title>elem_zero</title>
<polygon fill="#6e7681" stroke="yellow" points="90.5,-249.5 90.5,-285.5 452.5,-285.5 452.5,-249.5 90.5,-249.5"/>
<text text-anchor="middle" x="183.5" y="-263.8" font-family="Times,serif" font-size="14.00" fill="#000000">head = 0x55f5beafa5c0</text>
<polyline fill="none" stroke="yellow" points="276.5,-249.5 276.5,-285.5 "/>
<text text-anchor="middle" x="364.5" y="-263.8" font-family="Times,serif" font-size="14.00" fill="#000000">tail = 0x55f5beafa600</text>
</g>
<!-- elem_0 -->
<g id="node2" class="node">
<title>elem_0</title>
<polygon fill="#6e7681" stroke="white" points="44,-166.5 44,-212.5 499,-212.5 499,-166.5 44,-166.5"/>
<text text-anchor="middle" x="93" y="-185.8" font-family="Times,serif" font-size="14.00" fill="#000000">prev = (nil)</text>
<polyline fill="none" stroke="white" points="142,-166.5 142,-212.5 "/>
<text text-anchor="middle" x="228.5" y="-197.3" font-family="Times,serif" font-size="14.00" fill="#000000">ptr = 0x55f5beafa5c0</text>
<polyline fill="none" stroke="white" points="142,-189.5 315,-189.5 "/>
<text text-anchor="middle" x="228.5" y="-174.3" font-family="Times,serif" font-size="14.00" fill="#000000">elem = 0</text>
<polyline fill="none" stroke="white" points="315,-166.5 315,-212.5 "/>
<text text-anchor="middle" x="407" y="-185.8" font-family="Times,serif" font-size="14.00" fill="#000000">next = 0x55f5beafa5e0</text>
</g>
<!-- elem_zero&#45;&gt;elem_0 -->
<g id="edge1" class="edge">
<title>elem_zero&#45;&gt;elem_0</title>
<path fill="none" stroke="transparent" d="M271.5,-249.25C271.5,-241.36 271.5,-231.75 271.5,-222.6"/>
<polygon fill="transparent" stroke="transparent" points="275,-222.59 271.5,-212.59 268,-222.59 275,-222.59"/>
</g>
<!-- elem_1 -->
<g id="node3" class="node">
<title>elem_1</title>
<polygon fill="#6e7681" stroke="white" points="0,-83.5 0,-129.5 543,-129.5 543,-83.5 0,-83.5"/>
<text text-anchor="middle" x="92" y="-102.8" font-family="Times,serif" font-size="14.00" fill="#000000">prev = 0x55f5beafa5c0</text>
<polyline fill="none" stroke="white" points="184,-83.5 184,-129.5 "/>
<text text-anchor="middle" x="271" y="-114.3" font-family="Times,serif" font-size="14.00" fill="#000000">ptr = 0x55f5beafa5e0</text>
<polyline fill="none" stroke="white" points="184,-106.5 358,-106.5 "/>
<text text-anchor="middle" x="271" y="-91.3" font-family="Times,serif" font-size="14.00" fill="#000000">elem = 10</text>
<polyline fill="none" stroke="white" points="358,-83.5 358,-129.5 "/>
<text text-anchor="middle" x="450.5" y="-102.8" font-family="Times,serif" font-size="14.00" fill="#000000">next = 0x55f5beafa600</text>
</g>
<!-- elem_0&#45;&gt;elem_1 -->
<g id="edge2" class="edge">
<title>elem_0&#45;&gt;elem_1</title>
<path fill="none" stroke="transparent" d="M271.5,-166.37C271.5,-158.15 271.5,-148.66 271.5,-139.73"/>
<polygon fill="transparent" stroke="transparent" points="275,-139.61 271.5,-129.61 268,-139.61 275,-139.61"/>
</g>
<!-- elem_0&#45;&gt;elem_1 -->
<g id="edge4" class="edge">
<title>elem_0:n&#45;&gt;elem_1:n</title>
<path fill="none" stroke="green" d="M407.5,-166C407.5,-145.36 436.99,-151.31 447.13,-139.81"/>
<polygon fill="green" stroke="green" points="450.56,-140.59 450.5,-130 443.94,-138.32 450.56,-140.59"/>
</g>
<!-- elem_1&#45;&gt;elem_0 -->
<g id="edge6" class="edge">
<title>elem_1:p&#45;&gt;elem_0:p</title>
<path fill="none" stroke="blue" d="M91.5,-130C91.5,-142 92.06,-147.25 92.34,-155.87"/>
<polygon fill="blue" stroke="blue" points="88.85,-156.06 92.5,-166 95.85,-155.95 88.85,-156.06"/>
</g>
<!-- elem_2 -->
<g id="node4" class="node">
<title>elem_2</title>
<polygon fill="#6e7681" stroke="white" points="42.5,-0.5 42.5,-46.5 500.5,-46.5 500.5,-0.5 42.5,-0.5"/>
<text text-anchor="middle" x="135" y="-19.8" font-family="Times,serif" font-size="14.00" fill="#000000">prev = 0x55f5beafa5e0</text>
<polyline fill="none" stroke="white" points="227.5,-0.5 227.5,-46.5 "/>
<text text-anchor="middle" x="315" y="-31.3" font-family="Times,serif" font-size="14.00" fill="#000000">ptr = 0x55f5beafa600</text>
<polyline fill="none" stroke="white" points="227.5,-23.5 402.5,-23.5 "/>
<text text-anchor="middle" x="315" y="-8.3" font-family="Times,serif" font-size="14.00" fill="#000000">elem = 20</text>
<polyline fill="none" stroke="white" points="402.5,-0.5 402.5,-46.5 "/>
<text text-anchor="middle" x="451.5" y="-19.8" font-family="Times,serif" font-size="14.00" fill="#000000">next = (nil)</text>
</g>
<!-- elem_1&#45;&gt;elem_2 -->
<g id="edge3" class="edge">
<title>elem_1&#45;&gt;elem_2</title>
<path fill="none" stroke="transparent" d="M271.5,-83.37C271.5,-75.15 271.5,-65.66 271.5,-56.73"/>
<polygon fill="transparent" stroke="transparent" points="275,-56.61 271.5,-46.61 268,-56.61 275,-56.61"/>
</g>
<!-- elem_1&#45;&gt;elem_2 -->
<g id="edge5" class="edge">
<title>elem_1:n&#45;&gt;elem_2:n</title>
<path fill="none" stroke="green" d="M450.5,-83C450.5,-71 451.06,-65.75 451.34,-57.13"/>
<polygon fill="green" stroke="green" points="454.85,-57.05 451.5,-47 447.85,-56.94 454.85,-57.05"/>
</g>
<!-- elem_2&#45;&gt;elem_1 -->
<g id="edge7" class="edge">
<title>elem_2:p&#45;&gt;elem_1:p</title>
<path fill="none" stroke="blue" d="M134.5,-47C134.5,-67.64 105.01,-61.69 94.87,-73.19"/>
<polygon fill="blue" stroke="blue" points="91.44,-72.41 91.5,-83 98.06,-74.68 91.44,-72.41"/>
</g>
<!-- head -->
<g id="node5" class="node">
<title>head</title>
<polygon fill="#7293ba" stroke="yellow" points="601.5,-207.5 541.5,-207.5 541.5,-171.5 601.5,-171.5 601.5,-207.5"/>
<text text-anchor="middle" x="571.5" y="-185.8" font-family="Times,serif" font-size="14.00" fill="#000000">HEAD</text>
</g>
<!-- tail -->
<g id="node6" class="node">
<title>tail</title>
<polygon fill="#7293ba" stroke="yellow" points="598.5,-41.5 544.5,-41.5 544.5,-5.5 598.5,-5.5 598.5,-41.5"/>
<text text-anchor="middle" x="571.5" y="-19.8" font-family="Times,serif" font-size="14.00" fill="#000000">TAIL</text>
</g>
<!-- head&#45;&gt;tail -->
<g id="edge8" class="edge">
<title>head&#45;&gt;tail</title>
<path fill="none" stroke="transparent" d="M571.5,-171.26C571.5,-142.76 571.5,-85.62 571.5,-51.66"/>
<polygon fill="transparent" stroke="transparent" points="575,-51.51 571.5,-41.51 568,-51.51 575,-51.51"/>
</g>
</g>
</svg>
