<?xml version="1.0" encoding="UTF-8" standalone="no"?>
<!DOCTYPE svg PUBLIC "-//W3C//DTD SVG 1.1//EN"
 "http://www.w3.org/Graphics/SVG/1.1/DTD/svg11.dtd">
<!-- Generated by graphviz version 2.43.0 (0)
 -->
<!-- Title: List Pages: 1 -->
<svg width="612pt" height="460pt"
 viewBox="0.00 0.00 611.50 460.00" xmlns="http://www.w3.org/2000/svg" xmlns:xlink="http://www.w3.org/1999/xlink">
<g id="graph0" class="graph" transform="scale(1 1) rotate(0) translate(4 456)">
<title>List</title>
<polygon fill="#1f1f1f" stroke="transparent" points="-4,4 -4,-456 607.5,-456 607.5,4 -4,4"/>
<!-- elem_zero -->
<g id="node1" class="node">
<title>elem_zero</title>
<polygon fill="#6e7681" stroke="yellow" points="91.5,-415.5 91.5,-451.5 453.5,-451.5 453.5,-415.5 91.5,-415.5"/>
<text text-anchor="middle" x="184.5" y="-429.8" font-family="Times,serif" font-size="14.00" fill="#000000">head = 0x55f5beafa5c0</text>
<polyline fill="none" stroke="yellow" points="277.5,-415.5 277.5,-451.5 "/>
<text text-anchor="middle" x="365.5" y="-429.8" font-family="Times,serif" font-size="14.00" fill="#000000">tail = 0x55f5beafa600</text>
</g>
<!-- elem_0 -->
<g id="node2" class="node">
<title>elem_0</title>
<polygon fill="#6e7681" stroke="white" points="45,-332.5 45,-378.5 500,-378.5 500,-332.5 45,-332.5"/>
<text text-anchor="middle" x="94" y="-351.8" font-family="Times,serif" font-size="14.00" fill="#000000">prev = (nil)</text>
<polyline fill="none" stroke="white" points="143,-332.5 143,-378.5 "/>
<text text-anchor="middle" x="229.5" y="-363.3" font-family="Times,serif" font-size="14.00" fill="#000000">ptr = 0x55f5beafa5c0</text>
<polyline fill="none" stroke="white" points="143,-355.5 316,-355.5 "/>
<text text-anchor="middle" x="229.5" y="-340.3" font-family="Times,serif" font-size="14.00" fill="#000000">elem = 0</text>
<polyline fill="none" stroke="white" points="316,-332.5 316,-378.5 "/>
<text text-anchor="middle" x="408" y="-351.8" font-family="Times,serif" font-size="14.00" fill="#000000">next = 0x55f5beafa5e0</text>
</g>
<!-- elem_zero&#45;&gt;elem_0 -->
<g id="edge1" class="edge">
<title>elem_zero&#45;&gt;elem_0</title>
<path fill="none" stroke="transparent" d="M272.5,-415.25C272.5,-407.36 272.5,-397.75 272.5,-388.6"/>
<polygon fill="transparent" stroke="transparent" points="276,-388.59 272.5,-378.59 269,-388.59 276,-388.59"/>
</g>
<!-- elem_1 -->
<g id="node3" class="node">
<title>elem_1</title>
<polygon fill="#6e7681" stroke="white" points="1,-249.5 1,-295.5 544,-295.5 544,-249.5 1,-249.5"/>
<text text-anchor="middle" x="93" y="-268.8" font-family="Times,serif" font-size="14.00" fill="#000000">prev = 0x55f5beafa5c0</text>
<polyline fill="none" stroke="white" points="185,-249.5 185,-295.5 "/>
<text text-anchor="middle" x="272" y="-280.3" font-family="Times,serif" font-size="14.00" fill="#000000">ptr = 0x55f5beafa5e0</text>
<polyline fill="none" stroke="white" points="185,-272.5 359,-272.5 "/>
<text text-anchor="middle" x="272" y="-257.3" font-family="Times,serif" font-size="14.00" fill="#000000">elem = 10</text>
<polyline fill="none" stroke="white" points="359,-249.5 359,-295.5 "/>
<text text-anchor="middle" x="451.5" y="-268.8" font-family="Times,serif" font-size="14.00" fill="#000000">next = 0x55f5beafa820</text>
</g>
<!-- elem_0&#45;&gt;elem_1 -->
<g id="edge2" class="edge">
<title>elem_0&#45;&gt;elem_1</title>
<path fill="none" stroke="transparent" d="M272.5,-332.37C272.5,-324.15 272.5,-314.66 272.5,-305.73"/>
<polygon fill="transparent" stroke="transparent" points="276,-305.61 272.5,-295.61 269,-305.61 276,-305.61"/>
</g>
<!-- elem_0&#45;&gt;elem_1 -->
<g id="edge6" class="edge">
<title>elem_0:n&#45;&gt;elem_1:n</title>
<path fill="none" stroke="green" d="M408.5,-332C408.5,-311.36 437.99,-317.31 448.13,-305.81"/>
<polygon fill="green" stroke="green" points="451.56,-306.59 451.5,-296 444.94,-304.32 451.56,-306.59"/>
</g>
<!-- elem_1&#45;&gt;elem_0 -->
<g id="edge8" class="edge">
<title>elem_1:p&#45;&gt;elem_0:p</title>
<path fill="none" stroke="blue" d="M92.5,-296C92.5,-308 93.06,-313.25 93.34,-321.87"/>
<polygon fill="blue" stroke="blue" points="89.85,-322.06 93.5,-332 96.85,-321.95 89.85,-322.06"/>
</g>
<!-- elem_2 -->
<g id="node4" class="node">
<title>elem_2</title>
<polygon fill="#6e7681" stroke="white" points="0,-166.5 0,-212.5 545,-212.5 545,-166.5 0,-166.5"/>
<text text-anchor="middle" x="92.5" y="-185.8" font-family="Times,serif" font-size="14.00" fill="#000000">prev = 0x55f5beafa5e0</text>
<polyline fill="none" stroke="white" points="185,-166.5 185,-212.5 "/>
<text text-anchor="middle" x="272.5" y="-197.3" font-family="Times,serif" font-size="14.00" fill="#000000">ptr = 0x55f5beafa820</text>
<polyline fill="none" stroke="white" points="185,-189.5 360,-189.5 "/>
<text text-anchor="middle" x="272.5" y="-174.3" font-family="Times,serif" font-size="14.00" fill="#000000">elem = 20</text>
<polyline fill="none" stroke="white" points="360,-166.5 360,-212.5 "/>
<text text-anchor="middle" x="452.5" y="-185.8" font-family="Times,serif" font-size="14.00" fill="#000000">next = 0x55f5beafa800</text>
</g>
<!-- elem_1&#45;&gt;elem_2 -->
<g id="edge3" class="edge">
<title>elem_1&#45;&gt;elem_2</title>
<path fill="none" stroke="transparent" d="M272.5,-249.37C272.5,-241.15 272.5,-231.66 272.5,-222.73"/>
<polygon fill="transparent" stroke="transparent" points="276,-222.61 272.5,-212.61 269,-222.61 276,-222.61"/>
</g>
<!-- elem_1&#45;&gt;elem_2 -->
<g id="edge7" class="edge">
<title>elem_1:n&#45;&gt;elem_2:n</title>
<path fill="none" stroke="green" d="M451.5,-249C451.5,-237 452.06,-231.75 452.34,-223.13"/>
<polygon fill="green" stroke="green" points="455.85,-223.05 452.5,-213 448.85,-222.94 455.85,-223.05"/>
</g>
<!-- elem_2&#45;&gt;elem_1 -->
<g id="edge10" class="edge">
<title>elem_2:p&#45;&gt;elem_1:p</title>
<path fill="none" stroke="blue" d="M92.5,-213C92.5,-225 92.5,-230.25 92.5,-238.88"/>
<polygon fill="blue" stroke="blue" points="89,-239 92.5,-249 96,-239 89,-239"/>
</g>
<!-- elem_3 -->
<g id="node5" class="node">
<title>elem_3</title>
<polygon fill="#6e7681" stroke="white" points="0,-83.5 0,-129.5 545,-129.5 545,-83.5 0,-83.5"/>
<text text-anchor="middle" x="92.5" y="-102.8" font-family="Times,serif" font-size="14.00" fill="#000000">prev = 0x55f5beafa820</text>
<polyline fill="none" stroke="white" points="185,-83.5 185,-129.5 "/>
<text text-anchor="middle" x="272.5" y="-114.3" font-family="Times,serif" font-size="14.00" fill="#000000">ptr = 0x55f5beafa800</text>
<polyline fill="none" stroke="white" points="185,-106.5 360,-106.5 "/>
<text text-anchor="middle" x="272.5" y="-91.3" font-family="Times,serif" font-size="14.00" fill="#000000">elem = 15</text>
<polyline fill="none" stroke="white" points="360,-83.5 360,-129.5 "/>
<text text-anchor="middle" x="452.5" y="-102.8" font-family="Times,serif" font-size="14.00" fill="#000000">next = 0x55f5beafa600</text>
</g>
<!-- elem_2&#45;&gt;elem_3 -->
<g id="edge4" class="edge">
<title>elem_2&#45;&gt;elem_3</title>
<path fill="none" stroke="transparent" d="M272.5,-166.37C272.5,-158.15 272.5,-148.66 272.5,-139.73"/>
<polygon fill="transparent" stroke="transparent" points="276,-139.61 272.5,-129.61 269,-139.61 276,-139.61"/>
</g>
<!-- elem_2&#45;&gt;elem_3 -->
<g id="edge9" class="edge">
<title>elem_2:n&#45;&gt;elem_3:n</title>
<path fill="none" stroke="green" d="M452.5,-166C452.5,-154 452.5,-148.75 452.5,-140.12"/>
<polygon fill="green" stroke="green" points="456,-140 452.5,-130 449,-140 456,-140"/>
</g>
<!-- elem_3&#45;&gt;elem_2 -->
<g id="edge12" class="edge">
<title>elem_3:p&#45;&gt;elem_2:p</title>
<path fill="none" stroke="blue" d="M92.5,-130C92.5,-142 92.5,-147.25 92.5,-155.88"/>
<polygon fill="blue" stroke="blue" points="89,-156 92.5,-166 96,-156 89,-156"/>
</g>
<!-- elem_4 -->
<g id="node6" class="node">
<title>elem_4</title>
<polygon fill="#6e7681" stroke="white" points="43.5,-0.5 43.5,-46.5 501.5,-46.5 501.5,-0.5 43.5,-0.5"/>
<text text-anchor="middle" x="136" y="-19.8" font-family="Times,serif" font-size="14.00" fill="#000000">prev = 0x55f5beafa800</text>
<polyline fill="none" stroke="white" points="228.5,-0.5 228.5,-46.5 "/>
<text text-anchor="middle" x="316" y="-31.3" font-family="Times,serif" font-size="14.00" fill="#000000">ptr = 0x55f5beafa600</text>
<polyline fill="none" stroke="white" points="228.5,-23.5 403.5,-23.5 "/>
<text text-anchor="middle" x="316" y="-8.3" font-family="Times,serif" font-size="14.00" fill="#000000">elem = 20</text>
<polyline fill="none" stroke="white" points="403.5,-0.5 403.5,-46.5 "/>
<text text-anchor="middle" x="452.5" y="-19.8" font-family="Times,serif" font-size="14.00" fill="#000000">next = (nil)</text>
</g>
<!-- elem_3&#45;&gt;elem_4 -->
<g id="edge5" class="edge">
<title>elem_3&#45;&gt;elem_4</title>
<path fill="none" stroke="transparent" d="M272.5,-83.37C272.5,-75.15 272.5,-65.66 272.5,-56.73"/>
<polygon fill="transparent" stroke="transparent" points="276,-56.61 272.5,-46.61 269,-56.61 276,-56.61"/>
</g>
<!-- elem_3&#45;&gt;elem_4 -->
<g id="edge11" class="edge">
<title>elem_3:n&#45;&gt;elem_4:n</title>
<path fill="none" stroke="green" d="M452.5,-83C452.5,-71 452.5,-65.75 452.5,-57.12"/>
<polygon fill="green" stroke="green" points="456,-57 452.5,-47 449,-57 456,-57"/>
</g>
<!-- elem_4&#45;&gt;elem_3 -->
<g id="edge13" class="edge">
<title>elem_4:p&#45;&gt;elem_3:p</title>
<path fill="none" stroke="blue" d="M135.5,-47C135.5,-67.64 106.01,-61.69 95.87,-73.19"/>
<polygon fill="blue" stroke="blue" points="92.44,-72.41 92.5,-83 99.06,-74.68 92.44,-72.41"/>
</g>
<!-- head -->
<g id="node7" class="node">
<title>head</title>
<polygon fill="#7293ba" stroke="yellow" points="603.5,-373.5 543.5,-373.5 543.5,-337.5 603.5,-337.5 603.5,-373.5"/>
<text text-anchor="middle" x="573.5" y="-351.8" font-family="Times,serif" font-size="14.00" fill="#000000">HEAD</text>
</g>
<!-- tail -->
<g id="node8" class="node">
<title>tail</title>
<polygon fill="#7293ba" stroke="yellow" points="600.5,-41.5 546.5,-41.5 546.5,-5.5 600.5,-5.5 600.5,-41.5"/>
<text text-anchor="middle" x="573.5" y="-19.8" font-family="Times,serif" font-size="14.00" fill="#000000">TAIL</text>
</g>
<!-- head&#45;&gt;tail -->
<g id="edge14" class="edge">
<title>head&#45;&gt;tail</title>
<path fill="none" stroke="transparent" d="M573.5,-337.22C573.5,-283.32 573.5,-117.89 573.5,-52"/>
<polygon fill="transparent" stroke="transparent" points="577,-51.61 573.5,-41.61 570,-51.61 577,-51.61"/>
</g>
</g>
</svg>
