<?xml version="1.0" encoding="UTF-8" standalone="no"?>
<!DOCTYPE svg PUBLIC "-//W3C//DTD SVG 1.1//EN"
 "http://www.w3.org/Graphics/SVG/1.1/DTD/svg11.dtd">
<!-- Generated by graphviz version 2.43.0 (0)
 -->
<!-- Title: List Pages: 1 -->
<svg width="612pt" height="958pt"
 viewBox="0.00 0.00 611.50 958.00" xmlns="http://www.w3.org/2000/svg" xmlns:xlink="http://www.w3.org/1999/xlink">
<g id="graph0" class="graph" transform="scale(1 1) rotate(0) translate(4 954)">
<title>List</title>
<polygon fill="#1f1f1f" stroke="transparent" points="-4,4 -4,-954 607.5,-954 607.5,4 -4,4"/>
<!-- elem_zero -->
<g id="node1" class="node">
<title>elem_zero</title>
<polygon fill="#6e7681" stroke="yellow" points="91,-913.5 91,-949.5 454,-949.5 454,-913.5 91,-913.5"/>
<text text-anchor="middle" x="184.5" y="-927.8" font-family="Times,serif" font-size="14.00" fill="#000000">head = 0x55f5beafa8e0</text>
<polyline fill="none" stroke="yellow" points="278,-913.5 278,-949.5 "/>
<text text-anchor="middle" x="366" y="-927.8" font-family="Times,serif" font-size="14.00" fill="#000000">tail = 0x55f5beafa600</text>
</g>
<!-- elem_0 -->
<g id="node2" class="node">
<title>elem_0</title>
<polygon fill="#6e7681" stroke="white" points="45,-830.5 45,-876.5 500,-876.5 500,-830.5 45,-830.5"/>
<text text-anchor="middle" x="94" y="-849.8" font-family="Times,serif" font-size="14.00" fill="#000000">prev = (nil)</text>
<polyline fill="none" stroke="white" points="143,-830.5 143,-876.5 "/>
<text text-anchor="middle" x="230" y="-861.3" font-family="Times,serif" font-size="14.00" fill="#000000">ptr = 0x55f5beafa8e0</text>
<polyline fill="none" stroke="white" points="143,-853.5 317,-853.5 "/>
<text text-anchor="middle" x="230" y="-838.3" font-family="Times,serif" font-size="14.00" fill="#000000">elem = &#45;10</text>
<polyline fill="none" stroke="white" points="317,-830.5 317,-876.5 "/>
<text text-anchor="middle" x="408.5" y="-849.8" font-family="Times,serif" font-size="14.00" fill="#000000">next = 0x55f5beafa5c0</text>
</g>
<!-- elem_zero&#45;&gt;elem_0 -->
<g id="edge1" class="edge">
<title>elem_zero&#45;&gt;elem_0</title>
<path fill="none" stroke="transparent" d="M272.5,-913.25C272.5,-905.36 272.5,-895.75 272.5,-886.6"/>
<polygon fill="transparent" stroke="transparent" points="276,-886.59 272.5,-876.59 269,-886.59 276,-886.59"/>
</g>
<!-- elem_1 -->
<g id="node3" class="node">
<title>elem_1</title>
<polygon fill="#6e7681" stroke="white" points="1.5,-747.5 1.5,-793.5 543.5,-793.5 543.5,-747.5 1.5,-747.5"/>
<text text-anchor="middle" x="94" y="-766.8" font-family="Times,serif" font-size="14.00" fill="#000000">prev = 0x55f5beafa8e0</text>
<polyline fill="none" stroke="white" points="186.5,-747.5 186.5,-793.5 "/>
<text text-anchor="middle" x="273" y="-778.3" font-family="Times,serif" font-size="14.00" fill="#000000">ptr = 0x55f5beafa5c0</text>
<polyline fill="none" stroke="white" points="186.5,-770.5 359.5,-770.5 "/>
<text text-anchor="middle" x="273" y="-755.3" font-family="Times,serif" font-size="14.00" fill="#000000">elem = 0</text>
<polyline fill="none" stroke="white" points="359.5,-747.5 359.5,-793.5 "/>
<text text-anchor="middle" x="451.5" y="-766.8" font-family="Times,serif" font-size="14.00" fill="#000000">next = 0x55f5beafa5e0</text>
</g>
<!-- elem_0&#45;&gt;elem_1 -->
<g id="edge2" class="edge">
<title>elem_0&#45;&gt;elem_1</title>
<path fill="none" stroke="transparent" d="M272.5,-830.37C272.5,-822.15 272.5,-812.66 272.5,-803.73"/>
<polygon fill="transparent" stroke="transparent" points="276,-803.61 272.5,-793.61 269,-803.61 276,-803.61"/>
</g>
<!-- elem_0&#45;&gt;elem_1 -->
<g id="edge12" class="edge">
<title>elem_0:n&#45;&gt;elem_1:n</title>
<path fill="none" stroke="green" d="M408.5,-830C408.5,-809.36 437.99,-815.31 448.13,-803.81"/>
<polygon fill="green" stroke="green" points="451.56,-804.59 451.5,-794 444.94,-802.32 451.56,-804.59"/>
</g>
<!-- elem_1&#45;&gt;elem_0 -->
<g id="edge14" class="edge">
<title>elem_1:p&#45;&gt;elem_0:p</title>
<path fill="none" stroke="blue" d="M93.5,-794C93.5,-806 93.5,-811.25 93.5,-819.88"/>
<polygon fill="blue" stroke="blue" points="90,-820 93.5,-830 97,-820 90,-820"/>
</g>
<!-- elem_2 -->
<g id="node4" class="node">
<title>elem_2</title>
<polygon fill="#6e7681" stroke="white" points="1,-664.5 1,-710.5 544,-710.5 544,-664.5 1,-664.5"/>
<text text-anchor="middle" x="93" y="-683.8" font-family="Times,serif" font-size="14.00" fill="#000000">prev = 0x55f5beafa5c0</text>
<polyline fill="none" stroke="white" points="185,-664.5 185,-710.5 "/>
<text text-anchor="middle" x="272" y="-695.3" font-family="Times,serif" font-size="14.00" fill="#000000">ptr = 0x55f5beafa5e0</text>
<polyline fill="none" stroke="white" points="185,-687.5 359,-687.5 "/>
<text text-anchor="middle" x="272" y="-672.3" font-family="Times,serif" font-size="14.00" fill="#000000">elem = 10</text>
<polyline fill="none" stroke="white" points="359,-664.5 359,-710.5 "/>
<text text-anchor="middle" x="451.5" y="-683.8" font-family="Times,serif" font-size="14.00" fill="#000000">next = 0x55f5beafa880</text>
</g>
<!-- elem_1&#45;&gt;elem_2 -->
<g id="edge3" class="edge">
<title>elem_1&#45;&gt;elem_2</title>
<path fill="none" stroke="transparent" d="M272.5,-747.37C272.5,-739.15 272.5,-729.66 272.5,-720.73"/>
<polygon fill="transparent" stroke="transparent" points="276,-720.61 272.5,-710.61 269,-720.61 276,-720.61"/>
</g>
<!-- elem_1&#45;&gt;elem_2 -->
<g id="edge13" class="edge">
<title>elem_1:n&#45;&gt;elem_2:n</title>
<path fill="none" stroke="green" d="M451.5,-747C451.5,-735 451.5,-729.75 451.5,-721.12"/>
<polygon fill="green" stroke="green" points="455,-721 451.5,-711 448,-721 455,-721"/>
</g>
<!-- elem_2&#45;&gt;elem_1 -->
<g id="edge16" class="edge">
<title>elem_2:p&#45;&gt;elem_1:p</title>
<path fill="none" stroke="blue" d="M92.5,-711C92.5,-723 93.06,-728.25 93.34,-736.87"/>
<polygon fill="blue" stroke="blue" points="89.85,-737.06 93.5,-747 96.85,-736.95 89.85,-737.06"/>
</g>
<!-- elem_3 -->
<g id="node5" class="node">
<title>elem_3</title>
<polygon fill="#6e7681" stroke="white" points="0.5,-581.5 0.5,-627.5 544.5,-627.5 544.5,-581.5 0.5,-581.5"/>
<text text-anchor="middle" x="93" y="-600.8" font-family="Times,serif" font-size="14.00" fill="#000000">prev = 0x55f5beafa5e0</text>
<polyline fill="none" stroke="white" points="185.5,-581.5 185.5,-627.5 "/>
<text text-anchor="middle" x="273" y="-612.3" font-family="Times,serif" font-size="14.00" fill="#000000">ptr = 0x55f5beafa880</text>
<polyline fill="none" stroke="white" points="185.5,-604.5 360.5,-604.5 "/>
<text text-anchor="middle" x="273" y="-589.3" font-family="Times,serif" font-size="14.00" fill="#000000">elem = 70</text>
<polyline fill="none" stroke="white" points="360.5,-581.5 360.5,-627.5 "/>
<text text-anchor="middle" x="452.5" y="-600.8" font-family="Times,serif" font-size="14.00" fill="#000000">next = 0x55f5beafa8a0</text>
</g>
<!-- elem_2&#45;&gt;elem_3 -->
<g id="edge4" class="edge">
<title>elem_2&#45;&gt;elem_3</title>
<path fill="none" stroke="transparent" d="M272.5,-664.37C272.5,-656.15 272.5,-646.66 272.5,-637.73"/>
<polygon fill="transparent" stroke="transparent" points="276,-637.61 272.5,-627.61 269,-637.61 276,-637.61"/>
</g>
<!-- elem_2&#45;&gt;elem_3 -->
<g id="edge15" class="edge">
<title>elem_2:n&#45;&gt;elem_3:n</title>
<path fill="none" stroke="green" d="M451.5,-664C451.5,-652 452.06,-646.75 452.34,-638.13"/>
<polygon fill="green" stroke="green" points="455.85,-638.05 452.5,-628 448.85,-637.94 455.85,-638.05"/>
</g>
<!-- elem_3&#45;&gt;elem_2 -->
<g id="edge18" class="edge">
<title>elem_3:p&#45;&gt;elem_2:p</title>
<path fill="none" stroke="blue" d="M92.5,-628C92.5,-640 92.5,-645.25 92.5,-653.88"/>
<polygon fill="blue" stroke="blue" points="89,-654 92.5,-664 96,-654 89,-654"/>
</g>
<!-- elem_4 -->
<g id="node6" class="node">
<title>elem_4</title>
<polygon fill="#6e7681" stroke="white" points="1.5,-498.5 1.5,-544.5 543.5,-544.5 543.5,-498.5 1.5,-498.5"/>
<text text-anchor="middle" x="94" y="-517.8" font-family="Times,serif" font-size="14.00" fill="#000000">prev = 0x55f5beafa880</text>
<polyline fill="none" stroke="white" points="186.5,-498.5 186.5,-544.5 "/>
<text text-anchor="middle" x="273.5" y="-529.3" font-family="Times,serif" font-size="14.00" fill="#000000">ptr = 0x55f5beafa8a0</text>
<polyline fill="none" stroke="white" points="186.5,-521.5 360.5,-521.5 "/>
<text text-anchor="middle" x="273.5" y="-506.3" font-family="Times,serif" font-size="14.00" fill="#000000">elem = 80</text>
<polyline fill="none" stroke="white" points="360.5,-498.5 360.5,-544.5 "/>
<text text-anchor="middle" x="452" y="-517.8" font-family="Times,serif" font-size="14.00" fill="#000000">next = 0x55f5beafa8c0</text>
</g>
<!-- elem_3&#45;&gt;elem_4 -->
<g id="edge5" class="edge">
<title>elem_3&#45;&gt;elem_4</title>
<path fill="none" stroke="transparent" d="M272.5,-581.37C272.5,-573.15 272.5,-563.66 272.5,-554.73"/>
<polygon fill="transparent" stroke="transparent" points="276,-554.61 272.5,-544.61 269,-554.61 276,-554.61"/>
</g>
<!-- elem_3&#45;&gt;elem_4 -->
<g id="edge17" class="edge">
<title>elem_3:n&#45;&gt;elem_4:n</title>
<path fill="none" stroke="green" d="M452.5,-581C452.5,-569 452.5,-563.75 452.5,-555.12"/>
<polygon fill="green" stroke="green" points="456,-555 452.5,-545 449,-555 456,-555"/>
</g>
<!-- elem_4&#45;&gt;elem_3 -->
<g id="edge20" class="edge">
<title>elem_4:p&#45;&gt;elem_3:p</title>
<path fill="none" stroke="blue" d="M93.5,-545C93.5,-557 92.94,-562.25 92.66,-570.87"/>
<polygon fill="blue" stroke="blue" points="89.15,-570.95 92.5,-581 96.15,-571.06 89.15,-570.95"/>
</g>
<!-- elem_5 -->
<g id="node7" class="node">
<title>elem_5</title>
<polygon fill="#6e7681" stroke="white" points="1,-415.5 1,-461.5 544,-461.5 544,-415.5 1,-415.5"/>
<text text-anchor="middle" x="93.5" y="-434.8" font-family="Times,serif" font-size="14.00" fill="#000000">prev = 0x55f5beafa8a0</text>
<polyline fill="none" stroke="white" points="186,-415.5 186,-461.5 "/>
<text text-anchor="middle" x="272.5" y="-446.3" font-family="Times,serif" font-size="14.00" fill="#000000">ptr = 0x55f5beafa8c0</text>
<polyline fill="none" stroke="white" points="186,-438.5 359,-438.5 "/>
<text text-anchor="middle" x="272.5" y="-423.3" font-family="Times,serif" font-size="14.00" fill="#000000">elem = 90</text>
<polyline fill="none" stroke="white" points="359,-415.5 359,-461.5 "/>
<text text-anchor="middle" x="451.5" y="-434.8" font-family="Times,serif" font-size="14.00" fill="#000000">next = 0x55f5beafa860</text>
</g>
<!-- elem_4&#45;&gt;elem_5 -->
<g id="edge6" class="edge">
<title>elem_4&#45;&gt;elem_5</title>
<path fill="none" stroke="transparent" d="M272.5,-498.37C272.5,-490.15 272.5,-480.66 272.5,-471.73"/>
<polygon fill="transparent" stroke="transparent" points="276,-471.61 272.5,-461.61 269,-471.61 276,-471.61"/>
</g>
<!-- elem_4&#45;&gt;elem_5 -->
<g id="edge19" class="edge">
<title>elem_4:n&#45;&gt;elem_5:n</title>
<path fill="none" stroke="green" d="M452.5,-498C452.5,-486 451.94,-480.75 451.66,-472.13"/>
<polygon fill="green" stroke="green" points="455.15,-471.94 451.5,-462 448.15,-472.05 455.15,-471.94"/>
</g>
<!-- elem_5&#45;&gt;elem_4 -->
<g id="edge22" class="edge">
<title>elem_5:p&#45;&gt;elem_4:p</title>
<path fill="none" stroke="blue" d="M93.5,-462C93.5,-474 93.5,-479.25 93.5,-487.88"/>
<polygon fill="blue" stroke="blue" points="90,-488 93.5,-498 97,-488 90,-488"/>
</g>
<!-- elem_6 -->
<g id="node8" class="node">
<title>elem_6</title>
<polygon fill="#6e7681" stroke="white" points="0.5,-332.5 0.5,-378.5 544.5,-378.5 544.5,-332.5 0.5,-332.5"/>
<text text-anchor="middle" x="92.5" y="-351.8" font-family="Times,serif" font-size="14.00" fill="#000000">prev = 0x55f5beafa8c0</text>
<polyline fill="none" stroke="white" points="184.5,-332.5 184.5,-378.5 "/>
<text text-anchor="middle" x="272" y="-363.3" font-family="Times,serif" font-size="14.00" fill="#000000">ptr = 0x55f5beafa860</text>
<polyline fill="none" stroke="white" points="184.5,-355.5 359.5,-355.5 "/>
<text text-anchor="middle" x="272" y="-340.3" font-family="Times,serif" font-size="14.00" fill="#000000">elem = 60</text>
<polyline fill="none" stroke="white" points="359.5,-332.5 359.5,-378.5 "/>
<text text-anchor="middle" x="452" y="-351.8" font-family="Times,serif" font-size="14.00" fill="#000000">next = 0x55f5beafa840</text>
</g>
<!-- elem_5&#45;&gt;elem_6 -->
<g id="edge7" class="edge">
<title>elem_5&#45;&gt;elem_6</title>
<path fill="none" stroke="transparent" d="M272.5,-415.37C272.5,-407.15 272.5,-397.66 272.5,-388.73"/>
<polygon fill="transparent" stroke="transparent" points="276,-388.61 272.5,-378.61 269,-388.61 276,-388.61"/>
</g>
<!-- elem_5&#45;&gt;elem_6 -->
<g id="edge21" class="edge">
<title>elem_5:n&#45;&gt;elem_6:n</title>
<path fill="none" stroke="green" d="M451.5,-415C451.5,-403 452.06,-397.75 452.34,-389.13"/>
<polygon fill="green" stroke="green" points="455.85,-389.05 452.5,-379 448.85,-388.94 455.85,-389.05"/>
</g>
<!-- elem_6&#45;&gt;elem_5 -->
<g id="edge24" class="edge">
<title>elem_6:p&#45;&gt;elem_5:p</title>
<path fill="none" stroke="blue" d="M92.5,-379C92.5,-391 93.06,-396.25 93.34,-404.87"/>
<polygon fill="blue" stroke="blue" points="89.85,-405.06 93.5,-415 96.85,-404.95 89.85,-405.06"/>
</g>
<!-- elem_7 -->
<g id="node9" class="node">
<title>elem_7</title>
<polygon fill="#6e7681" stroke="white" points="0,-249.5 0,-295.5 545,-295.5 545,-249.5 0,-249.5"/>
<text text-anchor="middle" x="92.5" y="-268.8" font-family="Times,serif" font-size="14.00" fill="#000000">prev = 0x55f5beafa860</text>
<polyline fill="none" stroke="white" points="185,-249.5 185,-295.5 "/>
<text text-anchor="middle" x="272.5" y="-280.3" font-family="Times,serif" font-size="14.00" fill="#000000">ptr = 0x55f5beafa840</text>
<polyline fill="none" stroke="white" points="185,-272.5 360,-272.5 "/>
<text text-anchor="middle" x="272.5" y="-257.3" font-family="Times,serif" font-size="14.00" fill="#000000">elem = 50</text>
<polyline fill="none" stroke="white" points="360,-249.5 360,-295.5 "/>
<text text-anchor="middle" x="452.5" y="-268.8" font-family="Times,serif" font-size="14.00" fill="#000000">next = 0x55f5beafa820</text>
</g>
<!-- elem_6&#45;&gt;elem_7 -->
<g id="edge8" class="edge">
<title>elem_6&#45;&gt;elem_7</title>
<path fill="none" stroke="transparent" d="M272.5,-332.37C272.5,-324.15 272.5,-314.66 272.5,-305.73"/>
<polygon fill="transparent" stroke="transparent" points="276,-305.61 272.5,-295.61 269,-305.61 276,-305.61"/>
</g>
<!-- elem_6&#45;&gt;elem_7 -->
<g id="edge23" class="edge">
<title>elem_6:n&#45;&gt;elem_7:n</title>
<path fill="none" stroke="green" d="M452.5,-332C452.5,-320 452.5,-314.75 452.5,-306.12"/>
<polygon fill="green" stroke="green" points="456,-306 452.5,-296 449,-306 456,-306"/>
</g>
<!-- elem_7&#45;&gt;elem_6 -->
<g id="edge26" class="edge">
<title>elem_7:p&#45;&gt;elem_6:p</title>
<path fill="none" stroke="blue" d="M92.5,-296C92.5,-308 92.5,-313.25 92.5,-321.88"/>
<polygon fill="blue" stroke="blue" points="89,-322 92.5,-332 96,-322 89,-322"/>
</g>
<!-- elem_8 -->
<g id="node10" class="node">
<title>elem_8</title>
<polygon fill="#6e7681" stroke="white" points="0,-166.5 0,-212.5 545,-212.5 545,-166.5 0,-166.5"/>
<text text-anchor="middle" x="92.5" y="-185.8" font-family="Times,serif" font-size="14.00" fill="#000000">prev = 0x55f5beafa840</text>
<polyline fill="none" stroke="white" points="185,-166.5 185,-212.5 "/>
<text text-anchor="middle" x="272.5" y="-197.3" font-family="Times,serif" font-size="14.00" fill="#000000">ptr = 0x55f5beafa820</text>
<polyline fill="none" stroke="white" points="185,-189.5 360,-189.5 "/>
<text text-anchor="middle" x="272.5" y="-174.3" font-family="Times,serif" font-size="14.00" fill="#000000">elem = 20</text>
<polyline fill="none" stroke="white" points="360,-166.5 360,-212.5 "/>
<text text-anchor="middle" x="452.5" y="-185.8" font-family="Times,serif" font-size="14.00" fill="#000000">next = 0x55f5beafa800</text>
</g>
<!-- elem_7&#45;&gt;elem_8 -->
<g id="edge9" class="edge">
<title>elem_7&#45;&gt;elem_8</title>
<path fill="none" stroke="transparent" d="M272.5,-249.37C272.5,-241.15 272.5,-231.66 272.5,-222.73"/>
<polygon fill="transparent" stroke="transparent" points="276,-222.61 272.5,-212.61 269,-222.61 276,-222.61"/>
</g>
<!-- elem_7&#45;&gt;elem_8 -->
<g id="edge25" class="edge">
<title>elem_7:n&#45;&gt;elem_8:n</title>
<path fill="none" stroke="green" d="M452.5,-249C452.5,-237 452.5,-231.75 452.5,-223.12"/>
<polygon fill="green" stroke="green" points="456,-223 452.5,-213 449,-223 456,-223"/>
</g>
<!-- elem_8&#45;&gt;elem_7 -->
<g id="edge28" class="edge">
<title>elem_8:p&#45;&gt;elem_7:p</title>
<path fill="none" stroke="blue" d="M92.5,-213C92.5,-225 92.5,-230.25 92.5,-238.88"/>
<polygon fill="blue" stroke="blue" points="89,-239 92.5,-249 96,-239 89,-239"/>
</g>
<!-- elem_9 -->
<g id="node11" class="node">
<title>elem_9</title>
<polygon fill="#6e7681" stroke="white" points="0,-83.5 0,-129.5 545,-129.5 545,-83.5 0,-83.5"/>
<text text-anchor="middle" x="92.5" y="-102.8" font-family="Times,serif" font-size="14.00" fill="#000000">prev = 0x55f5beafa820</text>
<polyline fill="none" stroke="white" points="185,-83.5 185,-129.5 "/>
<text text-anchor="middle" x="272.5" y="-114.3" font-family="Times,serif" font-size="14.00" fill="#000000">ptr = 0x55f5beafa800</text>
<polyline fill="none" stroke="white" points="185,-106.5 360,-106.5 "/>
<text text-anchor="middle" x="272.5" y="-91.3" font-family="Times,serif" font-size="14.00" fill="#000000">elem = 15</text>
<polyline fill="none" stroke="white" points="360,-83.5 360,-129.5 "/>
<text text-anchor="middle" x="452.5" y="-102.8" font-family="Times,serif" font-size="14.00" fill="#000000">next = 0x55f5beafa600</text>
</g>
<!-- elem_8&#45;&gt;elem_9 -->
<g id="edge10" class="edge">
<title>elem_8&#45;&gt;elem_9</title>
<path fill="none" stroke="transparent" d="M272.5,-166.37C272.5,-158.15 272.5,-148.66 272.5,-139.73"/>
<polygon fill="transparent" stroke="transparent" points="276,-139.61 272.5,-129.61 269,-139.61 276,-139.61"/>
</g>
<!-- elem_8&#45;&gt;elem_9 -->
<g id="edge27" class="edge">
<title>elem_8:n&#45;&gt;elem_9:n</title>
<path fill="none" stroke="green" d="M452.5,-166C452.5,-154 452.5,-148.75 452.5,-140.12"/>
<polygon fill="green" stroke="green" points="456,-140 452.5,-130 449,-140 456,-140"/>
</g>
<!-- elem_9&#45;&gt;elem_8 -->
<g id="edge30" class="edge">
<title>elem_9:p&#45;&gt;elem_8:p</title>
<path fill="none" stroke="blue" d="M92.5,-130C92.5,-142 92.5,-147.25 92.5,-155.88"/>
<polygon fill="blue" stroke="blue" points="89,-156 92.5,-166 96,-156 89,-156"/>
</g>
<!-- elem_10 -->
<g id="node12" class="node">
<title>elem_10</title>
<polygon fill="#6e7681" stroke="white" points="43.5,-0.5 43.5,-46.5 501.5,-46.5 501.5,-0.5 43.5,-0.5"/>
<text text-anchor="middle" x="136" y="-19.8" font-family="Times,serif" font-size="14.00" fill="#000000">prev = 0x55f5beafa800</text>
<polyline fill="none" stroke="white" points="228.5,-0.5 228.5,-46.5 "/>
<text text-anchor="middle" x="316" y="-31.3" font-family="Times,serif" font-size="14.00" fill="#000000">ptr = 0x55f5beafa600</text>
<polyline fill="none" stroke="white" points="228.5,-23.5 403.5,-23.5 "/>
<text text-anchor="middle" x="316" y="-8.3" font-family="Times,serif" font-size="14.00" fill="#000000">elem = 20</text>
<polyline fill="none" stroke="white" points="403.5,-0.5 403.5,-46.5 "/>
<text text-anchor="middle" x="452.5" y="-19.8" font-family="Times,serif" font-size="14.00" fill="#000000">next = (nil)</text>
</g>
<!-- elem_9&#45;&gt;elem_10 -->
<g id="edge11" class="edge">
<title>elem_9&#45;&gt;elem_10</title>
<path fill="none" stroke="transparent" d="M272.5,-83.37C272.5,-75.15 272.5,-65.66 272.5,-56.73"/>
<polygon fill="transparent" stroke="transparent" points="276,-56.61 272.5,-46.61 269,-56.61 276,-56.61"/>
</g>
<!-- elem_9&#45;&gt;elem_10 -->
<g id="edge29" class="edge">
<title>elem_9:n&#45;&gt;elem_10:n</title>
<path fill="none" stroke="green" d="M452.5,-83C452.5,-71 452.5,-65.75 452.5,-57.12"/>
<polygon fill="green" stroke="green" points="456,-57 452.5,-47 449,-57 456,-57"/>
</g>
<!-- elem_10&#45;&gt;elem_9 -->
<g id="edge31" class="edge">
<title>elem_10:p&#45;&gt;elem_9:p</title>
<path fill="none" stroke="blue" d="M135.5,-47C135.5,-67.64 106.01,-61.69 95.87,-73.19"/>
<polygon fill="blue" stroke="blue" points="92.44,-72.41 92.5,-83 99.06,-74.68 92.44,-72.41"/>
</g>
<!-- head -->
<g id="node13" class="node">
<title>head</title>
<polygon fill="#7293ba" stroke="yellow" points="603.5,-871.5 543.5,-871.5 543.5,-835.5 603.5,-835.5 603.5,-871.5"/>
<text text-anchor="middle" x="573.5" y="-849.8" font-family="Times,serif" font-size="14.00" fill="#000000">HEAD</text>
</g>
<!-- tail -->
<g id="node14" class="node">
<title>tail</title>
<polygon fill="#7293ba" stroke="yellow" points="600.5,-41.5 546.5,-41.5 546.5,-5.5 600.5,-5.5 600.5,-41.5"/>
<text text-anchor="middle" x="573.5" y="-19.8" font-family="Times,serif" font-size="14.00" fill="#000000">TAIL</text>
</g>
<!-- head&#45;&gt;tail -->
<g id="edge32" class="edge">
<title>head&#45;&gt;tail</title>
<path fill="none" stroke="transparent" d="M573.5,-835.26C573.5,-805.38 573.5,-742.03 573.5,-688.5 573.5,-688.5 573.5,-688.5 573.5,-188.5 573.5,-140.41 573.5,-84.38 573.5,-51.83"/>
<polygon fill="transparent" stroke="transparent" points="577,-51.74 573.5,-41.74 570,-51.74 577,-51.74"/>
</g>
</g>
</svg>
