<?xml version="1.0" encoding="UTF-8" standalone="no"?>
<!DOCTYPE svg PUBLIC "-//W3C//DTD SVG 1.1//EN"
 "http://www.w3.org/Graphics/SVG/1.1/DTD/svg11.dtd">
<!-- Generated by graphviz version 2.43.0 (0)
 -->
<!-- Title: List Pages: 1 -->
<svg width="636pt" height="294pt"
 viewBox="0.00 0.00 636.00 294.00" xmlns="http://www.w3.org/2000/svg" xmlns:xlink="http://www.w3.org/1999/xlink">
<g id="graph0" class="graph" transform="scale(1 1) rotate(0) translate(4 290)">
<title>List</title>
<polygon fill="#1f1f1f" stroke="transparent" points="-4,4 -4,-290 632,-290 632,4 -4,4"/>
<!-- elem_zero -->
<g id="node1" class="node">
<title>elem_zero</title>
<polygon fill="#6e7681" stroke="yellow" points="95,-249.5 95,-285.5 475,-285.5 475,-249.5 95,-249.5"/>
<text text-anchor="middle" x="192.5" y="-263.8" font-family="Times,serif" font-size="14.00" fill="#000000">head = 0x560661e675c0</text>
<polyline fill="none" stroke="yellow" points="290,-249.5 290,-285.5 "/>
<text text-anchor="middle" x="382.5" y="-263.8" font-family="Times,serif" font-size="14.00" fill="#000000">tail = 0x560661e67600</text>
</g>
<!-- elem_0 -->
<g id="node2" class="node">
<title>elem_0</title>
<polygon fill="#6e7681" stroke="white" points="48.5,-166.5 48.5,-212.5 521.5,-212.5 521.5,-166.5 48.5,-166.5"/>
<text text-anchor="middle" x="97.5" y="-185.8" font-family="Times,serif" font-size="14.00" fill="#000000">prev = (nil)</text>
<polyline fill="none" stroke="white" points="146.5,-166.5 146.5,-212.5 "/>
<text text-anchor="middle" x="237.5" y="-197.3" font-family="Times,serif" font-size="14.00" fill="#000000">ptr = 0x560661e675c0</text>
<polyline fill="none" stroke="white" points="146.5,-189.5 328.5,-189.5 "/>
<text text-anchor="middle" x="237.5" y="-174.3" font-family="Times,serif" font-size="14.00" fill="#000000">elem = 0</text>
<polyline fill="none" stroke="white" points="328.5,-166.5 328.5,-212.5 "/>
<text text-anchor="middle" x="425" y="-185.8" font-family="Times,serif" font-size="14.00" fill="#000000">next = 0x560661e675e0</text>
</g>
<!-- elem_zero&#45;&gt;elem_0 -->
<g id="edge1" class="edge">
<title>elem_zero&#45;&gt;elem_0</title>
<path fill="none" stroke="transparent" d="M285,-249.25C285,-241.36 285,-231.75 285,-222.6"/>
<polygon fill="transparent" stroke="transparent" points="288.5,-222.59 285,-212.59 281.5,-222.59 288.5,-222.59"/>
</g>
<!-- elem_1 -->
<g id="node3" class="node">
<title>elem_1</title>
<polygon fill="#6e7681" stroke="white" points="0,-83.5 0,-129.5 570,-129.5 570,-83.5 0,-83.5"/>
<text text-anchor="middle" x="96.5" y="-102.8" font-family="Times,serif" font-size="14.00" fill="#000000">prev = 0x560661e675c0</text>
<polyline fill="none" stroke="white" points="193,-83.5 193,-129.5 "/>
<text text-anchor="middle" x="284.5" y="-114.3" font-family="Times,serif" font-size="14.00" fill="#000000">ptr = 0x560661e675e0</text>
<polyline fill="none" stroke="white" points="193,-106.5 376,-106.5 "/>
<text text-anchor="middle" x="284.5" y="-91.3" font-family="Times,serif" font-size="14.00" fill="#000000">elem = 10</text>
<polyline fill="none" stroke="white" points="376,-83.5 376,-129.5 "/>
<text text-anchor="middle" x="473" y="-102.8" font-family="Times,serif" font-size="14.00" fill="#000000">next = 0x560661e67600</text>
</g>
<!-- elem_0&#45;&gt;elem_1 -->
<g id="edge2" class="edge">
<title>elem_0&#45;&gt;elem_1</title>
<path fill="none" stroke="transparent" d="M285,-166.37C285,-158.15 285,-148.66 285,-139.73"/>
<polygon fill="transparent" stroke="transparent" points="288.5,-139.61 285,-129.61 281.5,-139.61 288.5,-139.61"/>
</g>
<!-- elem_0&#45;&gt;elem_1 -->
<g id="edge4" class="edge">
<title>elem_0:n&#45;&gt;elem_1:n</title>
<path fill="none" stroke="green" d="M425,-166C425,-143.5 459.17,-152.32 469.85,-139.61"/>
<polygon fill="green" stroke="green" points="473.21,-140.59 473,-130 466.56,-138.41 473.21,-140.59"/>
</g>
<!-- elem_1&#45;&gt;elem_0 -->
<g id="edge6" class="edge">
<title>elem_1:p&#45;&gt;elem_0:p</title>
<path fill="none" stroke="blue" d="M96,-130C96,-142 96.56,-147.25 96.84,-155.87"/>
<polygon fill="blue" stroke="blue" points="93.35,-156.06 97,-166 100.35,-155.95 93.35,-156.06"/>
</g>
<!-- elem_2 -->
<g id="node4" class="node">
<title>elem_2</title>
<polygon fill="#6e7681" stroke="white" points="47,-0.5 47,-46.5 523,-46.5 523,-0.5 47,-0.5"/>
<text text-anchor="middle" x="144" y="-19.8" font-family="Times,serif" font-size="14.00" fill="#000000">prev = 0x560661e675e0</text>
<polyline fill="none" stroke="white" points="241,-0.5 241,-46.5 "/>
<text text-anchor="middle" x="333" y="-31.3" font-family="Times,serif" font-size="14.00" fill="#000000">ptr = 0x560661e67600</text>
<polyline fill="none" stroke="white" points="241,-23.5 425,-23.5 "/>
<text text-anchor="middle" x="333" y="-8.3" font-family="Times,serif" font-size="14.00" fill="#000000">elem = 20</text>
<polyline fill="none" stroke="white" points="425,-0.5 425,-46.5 "/>
<text text-anchor="middle" x="474" y="-19.8" font-family="Times,serif" font-size="14.00" fill="#000000">next = (nil)</text>
</g>
<!-- elem_1&#45;&gt;elem_2 -->
<g id="edge3" class="edge">
<title>elem_1&#45;&gt;elem_2</title>
<path fill="none" stroke="transparent" d="M285,-83.37C285,-75.15 285,-65.66 285,-56.73"/>
<polygon fill="transparent" stroke="transparent" points="288.5,-56.61 285,-46.61 281.5,-56.61 288.5,-56.61"/>
</g>
<!-- elem_1&#45;&gt;elem_2 -->
<g id="edge5" class="edge">
<title>elem_1:n&#45;&gt;elem_2:n</title>
<path fill="none" stroke="green" d="M473,-83C473,-71 473.56,-65.75 473.84,-57.13"/>
<polygon fill="green" stroke="green" points="477.35,-57.05 474,-47 470.35,-56.94 477.35,-57.05"/>
</g>
<!-- elem_2&#45;&gt;elem_1 -->
<g id="edge7" class="edge">
<title>elem_2:p&#45;&gt;elem_1:p</title>
<path fill="none" stroke="blue" d="M144,-47C144,-69.5 109.83,-60.68 99.15,-73.39"/>
<polygon fill="blue" stroke="blue" points="95.79,-72.41 96,-83 102.44,-74.59 95.79,-72.41"/>
</g>
<!-- head -->
<g id="node5" class="node">
<title>head</title>
<polygon fill="#7293ba" stroke="yellow" points="628,-207.5 568,-207.5 568,-171.5 628,-171.5 628,-207.5"/>
<text text-anchor="middle" x="598" y="-185.8" font-family="Times,serif" font-size="14.00" fill="#000000">HEAD</text>
</g>
<!-- tail -->
<g id="node6" class="node">
<title>tail</title>
<polygon fill="#7293ba" stroke="yellow" points="625,-41.5 571,-41.5 571,-5.5 625,-5.5 625,-41.5"/>
<text text-anchor="middle" x="598" y="-19.8" font-family="Times,serif" font-size="14.00" fill="#000000">TAIL</text>
</g>
<!-- head&#45;&gt;tail -->
<g id="edge8" class="edge">
<title>head&#45;&gt;tail</title>
<path fill="none" stroke="transparent" d="M598,-171.26C598,-142.76 598,-85.62 598,-51.66"/>
<polygon fill="transparent" stroke="transparent" points="601.5,-51.51 598,-41.51 594.5,-51.51 601.5,-51.51"/>
</g>
</g>
</svg>
