<?xml version="1.0" encoding="UTF-8" standalone="no"?>
<!DOCTYPE svg PUBLIC "-//W3C//DTD SVG 1.1//EN"
 "http://www.w3.org/Graphics/SVG/1.1/DTD/svg11.dtd">
<!-- Generated by graphviz version 2.43.0 (0)
 -->
<!-- Title: List Pages: 1 -->
<svg width="638pt" height="377pt"
 viewBox="0.00 0.00 638.00 377.00" xmlns="http://www.w3.org/2000/svg" xmlns:xlink="http://www.w3.org/1999/xlink">
<g id="graph0" class="graph" transform="scale(1 1) rotate(0) translate(4 373)">
<title>List</title>
<polygon fill="#1f1f1f" stroke="transparent" points="-4,4 -4,-373 634,-373 634,4 -4,4"/>
<!-- elem_zero -->
<g id="node1" class="node">
<title>elem_zero</title>
<polygon fill="#6e7681" stroke="yellow" points="96,-332.5 96,-368.5 476,-368.5 476,-332.5 96,-332.5"/>
<text text-anchor="middle" x="193.5" y="-346.8" font-family="Times,serif" font-size="14.00" fill="#000000">head = 0x560661e675c0</text>
<polyline fill="none" stroke="yellow" points="291,-332.5 291,-368.5 "/>
<text text-anchor="middle" x="383.5" y="-346.8" font-family="Times,serif" font-size="14.00" fill="#000000">tail = 0x560661e67600</text>
</g>
<!-- elem_0 -->
<g id="node2" class="node">
<title>elem_0</title>
<polygon fill="#6e7681" stroke="white" points="49.5,-249.5 49.5,-295.5 522.5,-295.5 522.5,-249.5 49.5,-249.5"/>
<text text-anchor="middle" x="98.5" y="-268.8" font-family="Times,serif" font-size="14.00" fill="#000000">prev = (nil)</text>
<polyline fill="none" stroke="white" points="147.5,-249.5 147.5,-295.5 "/>
<text text-anchor="middle" x="238.5" y="-280.3" font-family="Times,serif" font-size="14.00" fill="#000000">ptr = 0x560661e675c0</text>
<polyline fill="none" stroke="white" points="147.5,-272.5 329.5,-272.5 "/>
<text text-anchor="middle" x="238.5" y="-257.3" font-family="Times,serif" font-size="14.00" fill="#000000">elem = 0</text>
<polyline fill="none" stroke="white" points="329.5,-249.5 329.5,-295.5 "/>
<text text-anchor="middle" x="426" y="-268.8" font-family="Times,serif" font-size="14.00" fill="#000000">next = 0x560661e675e0</text>
</g>
<!-- elem_zero&#45;&gt;elem_0 -->
<g id="edge1" class="edge">
<title>elem_zero&#45;&gt;elem_0</title>
<path fill="none" stroke="transparent" d="M286,-332.25C286,-324.36 286,-314.75 286,-305.6"/>
<polygon fill="transparent" stroke="transparent" points="289.5,-305.59 286,-295.59 282.5,-305.59 289.5,-305.59"/>
</g>
<!-- elem_1 -->
<g id="node3" class="node">
<title>elem_1</title>
<polygon fill="#6e7681" stroke="white" points="1,-166.5 1,-212.5 571,-212.5 571,-166.5 1,-166.5"/>
<text text-anchor="middle" x="97.5" y="-185.8" font-family="Times,serif" font-size="14.00" fill="#000000">prev = 0x560661e675c0</text>
<polyline fill="none" stroke="white" points="194,-166.5 194,-212.5 "/>
<text text-anchor="middle" x="285.5" y="-197.3" font-family="Times,serif" font-size="14.00" fill="#000000">ptr = 0x560661e675e0</text>
<polyline fill="none" stroke="white" points="194,-189.5 377,-189.5 "/>
<text text-anchor="middle" x="285.5" y="-174.3" font-family="Times,serif" font-size="14.00" fill="#000000">elem = 10</text>
<polyline fill="none" stroke="white" points="377,-166.5 377,-212.5 "/>
<text text-anchor="middle" x="474" y="-185.8" font-family="Times,serif" font-size="14.00" fill="#000000">next = 0x560661e67800</text>
</g>
<!-- elem_0&#45;&gt;elem_1 -->
<g id="edge2" class="edge">
<title>elem_0&#45;&gt;elem_1</title>
<path fill="none" stroke="transparent" d="M286,-249.37C286,-241.15 286,-231.66 286,-222.73"/>
<polygon fill="transparent" stroke="transparent" points="289.5,-222.61 286,-212.61 282.5,-222.61 289.5,-222.61"/>
</g>
<!-- elem_0&#45;&gt;elem_1 -->
<g id="edge5" class="edge">
<title>elem_0:n&#45;&gt;elem_1:n</title>
<path fill="none" stroke="green" d="M426,-249C426,-226.5 460.17,-235.32 470.85,-222.61"/>
<polygon fill="green" stroke="green" points="474.21,-223.59 474,-213 467.56,-221.41 474.21,-223.59"/>
</g>
<!-- elem_1&#45;&gt;elem_0 -->
<g id="edge7" class="edge">
<title>elem_1:p&#45;&gt;elem_0:p</title>
<path fill="none" stroke="blue" d="M97,-213C97,-225 97.56,-230.25 97.84,-238.87"/>
<polygon fill="blue" stroke="blue" points="94.35,-239.06 98,-249 101.35,-238.95 94.35,-239.06"/>
</g>
<!-- elem_2 -->
<g id="node4" class="node">
<title>elem_2</title>
<polygon fill="#6e7681" stroke="white" points="0,-83.5 0,-129.5 572,-129.5 572,-83.5 0,-83.5"/>
<text text-anchor="middle" x="97" y="-102.8" font-family="Times,serif" font-size="14.00" fill="#000000">prev = 0x560661e675e0</text>
<polyline fill="none" stroke="white" points="194,-83.5 194,-129.5 "/>
<text text-anchor="middle" x="286" y="-114.3" font-family="Times,serif" font-size="14.00" fill="#000000">ptr = 0x560661e67800</text>
<polyline fill="none" stroke="white" points="194,-106.5 378,-106.5 "/>
<text text-anchor="middle" x="286" y="-91.3" font-family="Times,serif" font-size="14.00" fill="#000000">elem = 15</text>
<polyline fill="none" stroke="white" points="378,-83.5 378,-129.5 "/>
<text text-anchor="middle" x="475" y="-102.8" font-family="Times,serif" font-size="14.00" fill="#000000">next = 0x560661e67600</text>
</g>
<!-- elem_1&#45;&gt;elem_2 -->
<g id="edge3" class="edge">
<title>elem_1&#45;&gt;elem_2</title>
<path fill="none" stroke="transparent" d="M286,-166.37C286,-158.15 286,-148.66 286,-139.73"/>
<polygon fill="transparent" stroke="transparent" points="289.5,-139.61 286,-129.61 282.5,-139.61 289.5,-139.61"/>
</g>
<!-- elem_1&#45;&gt;elem_2 -->
<g id="edge6" class="edge">
<title>elem_1:n&#45;&gt;elem_2:n</title>
<path fill="none" stroke="green" d="M474,-166C474,-154 474.56,-148.75 474.84,-140.13"/>
<polygon fill="green" stroke="green" points="478.35,-140.05 475,-130 471.35,-139.94 478.35,-140.05"/>
</g>
<!-- elem_2&#45;&gt;elem_1 -->
<g id="edge9" class="edge">
<title>elem_2:p&#45;&gt;elem_1:p</title>
<path fill="none" stroke="blue" d="M97,-130C97,-142 97,-147.25 97,-155.88"/>
<polygon fill="blue" stroke="blue" points="93.5,-156 97,-166 100.5,-156 93.5,-156"/>
</g>
<!-- elem_3 -->
<g id="node5" class="node">
<title>elem_3</title>
<polygon fill="#6e7681" stroke="white" points="48,-0.5 48,-46.5 524,-46.5 524,-0.5 48,-0.5"/>
<text text-anchor="middle" x="145" y="-19.8" font-family="Times,serif" font-size="14.00" fill="#000000">prev = 0x560661e67800</text>
<polyline fill="none" stroke="white" points="242,-0.5 242,-46.5 "/>
<text text-anchor="middle" x="334" y="-31.3" font-family="Times,serif" font-size="14.00" fill="#000000">ptr = 0x560661e67600</text>
<polyline fill="none" stroke="white" points="242,-23.5 426,-23.5 "/>
<text text-anchor="middle" x="334" y="-8.3" font-family="Times,serif" font-size="14.00" fill="#000000">elem = 20</text>
<polyline fill="none" stroke="white" points="426,-0.5 426,-46.5 "/>
<text text-anchor="middle" x="475" y="-19.8" font-family="Times,serif" font-size="14.00" fill="#000000">next = (nil)</text>
</g>
<!-- elem_2&#45;&gt;elem_3 -->
<g id="edge4" class="edge">
<title>elem_2&#45;&gt;elem_3</title>
<path fill="none" stroke="transparent" d="M286,-83.37C286,-75.15 286,-65.66 286,-56.73"/>
<polygon fill="transparent" stroke="transparent" points="289.5,-56.61 286,-46.61 282.5,-56.61 289.5,-56.61"/>
</g>
<!-- elem_2&#45;&gt;elem_3 -->
<g id="edge8" class="edge">
<title>elem_2:n&#45;&gt;elem_3:n</title>
<path fill="none" stroke="green" d="M475,-83C475,-71 475,-65.75 475,-57.12"/>
<polygon fill="green" stroke="green" points="478.5,-57 475,-47 471.5,-57 478.5,-57"/>
</g>
<!-- elem_3&#45;&gt;elem_2 -->
<g id="edge10" class="edge">
<title>elem_3:p&#45;&gt;elem_2:p</title>
<path fill="none" stroke="blue" d="M145,-47C145,-69.5 110.83,-60.68 100.15,-73.39"/>
<polygon fill="blue" stroke="blue" points="96.79,-72.41 97,-83 103.44,-74.59 96.79,-72.41"/>
</g>
<!-- head -->
<g id="node6" class="node">
<title>head</title>
<polygon fill="#7293ba" stroke="yellow" points="630,-290.5 570,-290.5 570,-254.5 630,-254.5 630,-290.5"/>
<text text-anchor="middle" x="600" y="-268.8" font-family="Times,serif" font-size="14.00" fill="#000000">HEAD</text>
</g>
<!-- tail -->
<g id="node7" class="node">
<title>tail</title>
<polygon fill="#7293ba" stroke="yellow" points="627,-41.5 573,-41.5 573,-5.5 627,-5.5 627,-41.5"/>
<text text-anchor="middle" x="600" y="-19.8" font-family="Times,serif" font-size="14.00" fill="#000000">TAIL</text>
</g>
<!-- head&#45;&gt;tail -->
<g id="edge11" class="edge">
<title>head&#45;&gt;tail</title>
<path fill="none" stroke="transparent" d="M600,-254.13C600,-211.78 600,-102.92 600,-51.79"/>
<polygon fill="transparent" stroke="transparent" points="603.5,-51.52 600,-41.52 596.5,-51.52 603.5,-51.52"/>
</g>
</g>
</svg>
