<?xml version="1.0" encoding="UTF-8" standalone="no"?>
<!DOCTYPE svg PUBLIC "-//W3C//DTD SVG 1.1//EN"
 "http://www.w3.org/Graphics/SVG/1.1/DTD/svg11.dtd">
<!-- Generated by graphviz version 2.43.0 (0)
 -->
<!-- Title: List Pages: 1 -->
<svg width="638pt" height="460pt"
 viewBox="0.00 0.00 638.00 460.00" xmlns="http://www.w3.org/2000/svg" xmlns:xlink="http://www.w3.org/1999/xlink">
<g id="graph0" class="graph" transform="scale(1 1) rotate(0) translate(4 456)">
<title>List</title>
<polygon fill="#1f1f1f" stroke="transparent" points="-4,4 -4,-456 634,-456 634,4 -4,4"/>
<!-- elem_zero -->
<g id="node1" class="node">
<title>elem_zero</title>
<polygon fill="#6e7681" stroke="yellow" points="96,-415.5 96,-451.5 476,-451.5 476,-415.5 96,-415.5"/>
<text text-anchor="middle" x="193.5" y="-429.8" font-family="Times,serif" font-size="14.00" fill="#000000">head = 0x560661e675c0</text>
<polyline fill="none" stroke="yellow" points="291,-415.5 291,-451.5 "/>
<text text-anchor="middle" x="383.5" y="-429.8" font-family="Times,serif" font-size="14.00" fill="#000000">tail = 0x560661e67600</text>
</g>
<!-- elem_0 -->
<g id="node2" class="node">
<title>elem_0</title>
<polygon fill="#6e7681" stroke="white" points="49.5,-332.5 49.5,-378.5 522.5,-378.5 522.5,-332.5 49.5,-332.5"/>
<text text-anchor="middle" x="98.5" y="-351.8" font-family="Times,serif" font-size="14.00" fill="#000000">prev = (nil)</text>
<polyline fill="none" stroke="white" points="147.5,-332.5 147.5,-378.5 "/>
<text text-anchor="middle" x="238.5" y="-363.3" font-family="Times,serif" font-size="14.00" fill="#000000">ptr = 0x560661e675c0</text>
<polyline fill="none" stroke="white" points="147.5,-355.5 329.5,-355.5 "/>
<text text-anchor="middle" x="238.5" y="-340.3" font-family="Times,serif" font-size="14.00" fill="#000000">elem = 0</text>
<polyline fill="none" stroke="white" points="329.5,-332.5 329.5,-378.5 "/>
<text text-anchor="middle" x="426" y="-351.8" font-family="Times,serif" font-size="14.00" fill="#000000">next = 0x560661e675e0</text>
</g>
<!-- elem_zero&#45;&gt;elem_0 -->
<g id="edge1" class="edge">
<title>elem_zero&#45;&gt;elem_0</title>
<path fill="none" stroke="transparent" d="M286,-415.25C286,-407.36 286,-397.75 286,-388.6"/>
<polygon fill="transparent" stroke="transparent" points="289.5,-388.59 286,-378.59 282.5,-388.59 289.5,-388.59"/>
</g>
<!-- elem_1 -->
<g id="node3" class="node">
<title>elem_1</title>
<polygon fill="#6e7681" stroke="white" points="1,-249.5 1,-295.5 571,-295.5 571,-249.5 1,-249.5"/>
<text text-anchor="middle" x="97.5" y="-268.8" font-family="Times,serif" font-size="14.00" fill="#000000">prev = 0x560661e675c0</text>
<polyline fill="none" stroke="white" points="194,-249.5 194,-295.5 "/>
<text text-anchor="middle" x="285.5" y="-280.3" font-family="Times,serif" font-size="14.00" fill="#000000">ptr = 0x560661e675e0</text>
<polyline fill="none" stroke="white" points="194,-272.5 377,-272.5 "/>
<text text-anchor="middle" x="285.5" y="-257.3" font-family="Times,serif" font-size="14.00" fill="#000000">elem = 10</text>
<polyline fill="none" stroke="white" points="377,-249.5 377,-295.5 "/>
<text text-anchor="middle" x="474" y="-268.8" font-family="Times,serif" font-size="14.00" fill="#000000">next = 0x560661e67820</text>
</g>
<!-- elem_0&#45;&gt;elem_1 -->
<g id="edge2" class="edge">
<title>elem_0&#45;&gt;elem_1</title>
<path fill="none" stroke="transparent" d="M286,-332.37C286,-324.15 286,-314.66 286,-305.73"/>
<polygon fill="transparent" stroke="transparent" points="289.5,-305.61 286,-295.61 282.5,-305.61 289.5,-305.61"/>
</g>
<!-- elem_0&#45;&gt;elem_1 -->
<g id="edge6" class="edge">
<title>elem_0:n&#45;&gt;elem_1:n</title>
<path fill="none" stroke="green" d="M426,-332C426,-309.5 460.17,-318.32 470.85,-305.61"/>
<polygon fill="green" stroke="green" points="474.21,-306.59 474,-296 467.56,-304.41 474.21,-306.59"/>
</g>
<!-- elem_1&#45;&gt;elem_0 -->
<g id="edge8" class="edge">
<title>elem_1:p&#45;&gt;elem_0:p</title>
<path fill="none" stroke="blue" d="M97,-296C97,-308 97.56,-313.25 97.84,-321.87"/>
<polygon fill="blue" stroke="blue" points="94.35,-322.06 98,-332 101.35,-321.95 94.35,-322.06"/>
</g>
<!-- elem_2 -->
<g id="node4" class="node">
<title>elem_2</title>
<polygon fill="#6e7681" stroke="white" points="0,-166.5 0,-212.5 572,-212.5 572,-166.5 0,-166.5"/>
<text text-anchor="middle" x="97" y="-185.8" font-family="Times,serif" font-size="14.00" fill="#000000">prev = 0x560661e675e0</text>
<polyline fill="none" stroke="white" points="194,-166.5 194,-212.5 "/>
<text text-anchor="middle" x="286" y="-197.3" font-family="Times,serif" font-size="14.00" fill="#000000">ptr = 0x560661e67820</text>
<polyline fill="none" stroke="white" points="194,-189.5 378,-189.5 "/>
<text text-anchor="middle" x="286" y="-174.3" font-family="Times,serif" font-size="14.00" fill="#000000">elem = 20</text>
<polyline fill="none" stroke="white" points="378,-166.5 378,-212.5 "/>
<text text-anchor="middle" x="475" y="-185.8" font-family="Times,serif" font-size="14.00" fill="#000000">next = 0x560661e67800</text>
</g>
<!-- elem_1&#45;&gt;elem_2 -->
<g id="edge3" class="edge">
<title>elem_1&#45;&gt;elem_2</title>
<path fill="none" stroke="transparent" d="M286,-249.37C286,-241.15 286,-231.66 286,-222.73"/>
<polygon fill="transparent" stroke="transparent" points="289.5,-222.61 286,-212.61 282.5,-222.61 289.5,-222.61"/>
</g>
<!-- elem_1&#45;&gt;elem_2 -->
<g id="edge7" class="edge">
<title>elem_1:n&#45;&gt;elem_2:n</title>
<path fill="none" stroke="green" d="M474,-249C474,-237 474.56,-231.75 474.84,-223.13"/>
<polygon fill="green" stroke="green" points="478.35,-223.05 475,-213 471.35,-222.94 478.35,-223.05"/>
</g>
<!-- elem_2&#45;&gt;elem_1 -->
<g id="edge10" class="edge">
<title>elem_2:p&#45;&gt;elem_1:p</title>
<path fill="none" stroke="blue" d="M97,-213C97,-225 97,-230.25 97,-238.88"/>
<polygon fill="blue" stroke="blue" points="93.5,-239 97,-249 100.5,-239 93.5,-239"/>
</g>
<!-- elem_3 -->
<g id="node5" class="node">
<title>elem_3</title>
<polygon fill="#6e7681" stroke="white" points="0,-83.5 0,-129.5 572,-129.5 572,-83.5 0,-83.5"/>
<text text-anchor="middle" x="97" y="-102.8" font-family="Times,serif" font-size="14.00" fill="#000000">prev = 0x560661e67820</text>
<polyline fill="none" stroke="white" points="194,-83.5 194,-129.5 "/>
<text text-anchor="middle" x="286" y="-114.3" font-family="Times,serif" font-size="14.00" fill="#000000">ptr = 0x560661e67800</text>
<polyline fill="none" stroke="white" points="194,-106.5 378,-106.5 "/>
<text text-anchor="middle" x="286" y="-91.3" font-family="Times,serif" font-size="14.00" fill="#000000">elem = 15</text>
<polyline fill="none" stroke="white" points="378,-83.5 378,-129.5 "/>
<text text-anchor="middle" x="475" y="-102.8" font-family="Times,serif" font-size="14.00" fill="#000000">next = 0x560661e67600</text>
</g>
<!-- elem_2&#45;&gt;elem_3 -->
<g id="edge4" class="edge">
<title>elem_2&#45;&gt;elem_3</title>
<path fill="none" stroke="transparent" d="M286,-166.37C286,-158.15 286,-148.66 286,-139.73"/>
<polygon fill="transparent" stroke="transparent" points="289.5,-139.61 286,-129.61 282.5,-139.61 289.5,-139.61"/>
</g>
<!-- elem_2&#45;&gt;elem_3 -->
<g id="edge9" class="edge">
<title>elem_2:n&#45;&gt;elem_3:n</title>
<path fill="none" stroke="green" d="M475,-166C475,-154 475,-148.75 475,-140.12"/>
<polygon fill="green" stroke="green" points="478.5,-140 475,-130 471.5,-140 478.5,-140"/>
</g>
<!-- elem_3&#45;&gt;elem_2 -->
<g id="edge12" class="edge">
<title>elem_3:p&#45;&gt;elem_2:p</title>
<path fill="none" stroke="blue" d="M97,-130C97,-142 97,-147.25 97,-155.88"/>
<polygon fill="blue" stroke="blue" points="93.5,-156 97,-166 100.5,-156 93.5,-156"/>
</g>
<!-- elem_4 -->
<g id="node6" class="node">
<title>elem_4</title>
<polygon fill="#6e7681" stroke="white" points="48,-0.5 48,-46.5 524,-46.5 524,-0.5 48,-0.5"/>
<text text-anchor="middle" x="145" y="-19.8" font-family="Times,serif" font-size="14.00" fill="#000000">prev = 0x560661e67800</text>
<polyline fill="none" stroke="white" points="242,-0.5 242,-46.5 "/>
<text text-anchor="middle" x="334" y="-31.3" font-family="Times,serif" font-size="14.00" fill="#000000">ptr = 0x560661e67600</text>
<polyline fill="none" stroke="white" points="242,-23.5 426,-23.5 "/>
<text text-anchor="middle" x="334" y="-8.3" font-family="Times,serif" font-size="14.00" fill="#000000">elem = 20</text>
<polyline fill="none" stroke="white" points="426,-0.5 426,-46.5 "/>
<text text-anchor="middle" x="475" y="-19.8" font-family="Times,serif" font-size="14.00" fill="#000000">next = (nil)</text>
</g>
<!-- elem_3&#45;&gt;elem_4 -->
<g id="edge5" class="edge">
<title>elem_3&#45;&gt;elem_4</title>
<path fill="none" stroke="transparent" d="M286,-83.37C286,-75.15 286,-65.66 286,-56.73"/>
<polygon fill="transparent" stroke="transparent" points="289.5,-56.61 286,-46.61 282.5,-56.61 289.5,-56.61"/>
</g>
<!-- elem_3&#45;&gt;elem_4 -->
<g id="edge11" class="edge">
<title>elem_3:n&#45;&gt;elem_4:n</title>
<path fill="none" stroke="green" d="M475,-83C475,-71 475,-65.75 475,-57.12"/>
<polygon fill="green" stroke="green" points="478.5,-57 475,-47 471.5,-57 478.5,-57"/>
</g>
<!-- elem_4&#45;&gt;elem_3 -->
<g id="edge13" class="edge">
<title>elem_4:p&#45;&gt;elem_3:p</title>
<path fill="none" stroke="blue" d="M145,-47C145,-69.5 110.83,-60.68 100.15,-73.39"/>
<polygon fill="blue" stroke="blue" points="96.79,-72.41 97,-83 103.44,-74.59 96.79,-72.41"/>
</g>
<!-- head -->
<g id="node7" class="node">
<title>head</title>
<polygon fill="#7293ba" stroke="yellow" points="630,-373.5 570,-373.5 570,-337.5 630,-337.5 630,-373.5"/>
<text text-anchor="middle" x="600" y="-351.8" font-family="Times,serif" font-size="14.00" fill="#000000">HEAD</text>
</g>
<!-- tail -->
<g id="node8" class="node">
<title>tail</title>
<polygon fill="#7293ba" stroke="yellow" points="627,-41.5 573,-41.5 573,-5.5 627,-5.5 627,-41.5"/>
<text text-anchor="middle" x="600" y="-19.8" font-family="Times,serif" font-size="14.00" fill="#000000">TAIL</text>
</g>
<!-- head&#45;&gt;tail -->
<g id="edge14" class="edge">
<title>head&#45;&gt;tail</title>
<path fill="none" stroke="transparent" d="M600,-337.22C600,-283.32 600,-117.89 600,-52"/>
<polygon fill="transparent" stroke="transparent" points="603.5,-51.61 600,-41.61 596.5,-51.61 603.5,-51.61"/>
</g>
</g>
</svg>
