<?xml version="1.0" encoding="UTF-8" standalone="no"?>
<!DOCTYPE svg PUBLIC "-//W3C//DTD SVG 1.1//EN"
 "http://www.w3.org/Graphics/SVG/1.1/DTD/svg11.dtd">
<!-- Generated by graphviz version 2.43.0 (0)
 -->
<!-- Title: List Pages: 1 -->
<svg width="638pt" height="958pt"
 viewBox="0.00 0.00 638.00 958.00" xmlns="http://www.w3.org/2000/svg" xmlns:xlink="http://www.w3.org/1999/xlink">
<g id="graph0" class="graph" transform="scale(1 1) rotate(0) translate(4 954)">
<title>List</title>
<polygon fill="#1f1f1f" stroke="transparent" points="-4,4 -4,-954 634,-954 634,4 -4,4"/>
<!-- elem_zero -->
<g id="node1" class="node">
<title>elem_zero</title>
<polygon fill="#6e7681" stroke="yellow" points="95.5,-913.5 95.5,-949.5 476.5,-949.5 476.5,-913.5 95.5,-913.5"/>
<text text-anchor="middle" x="193.5" y="-927.8" font-family="Times,serif" font-size="14.00" fill="#000000">head = 0x560661e678e0</text>
<polyline fill="none" stroke="yellow" points="291.5,-913.5 291.5,-949.5 "/>
<text text-anchor="middle" x="384" y="-927.8" font-family="Times,serif" font-size="14.00" fill="#000000">tail = 0x560661e67600</text>
</g>
<!-- elem_0 -->
<g id="node2" class="node">
<title>elem_0</title>
<polygon fill="#6e7681" stroke="white" points="49.5,-830.5 49.5,-876.5 522.5,-876.5 522.5,-830.5 49.5,-830.5"/>
<text text-anchor="middle" x="98.5" y="-849.8" font-family="Times,serif" font-size="14.00" fill="#000000">prev = (nil)</text>
<polyline fill="none" stroke="white" points="147.5,-830.5 147.5,-876.5 "/>
<text text-anchor="middle" x="239" y="-861.3" font-family="Times,serif" font-size="14.00" fill="#000000">ptr = 0x560661e678e0</text>
<polyline fill="none" stroke="white" points="147.5,-853.5 330.5,-853.5 "/>
<text text-anchor="middle" x="239" y="-838.3" font-family="Times,serif" font-size="14.00" fill="#000000">elem = &#45;10</text>
<polyline fill="none" stroke="white" points="330.5,-830.5 330.5,-876.5 "/>
<text text-anchor="middle" x="426.5" y="-849.8" font-family="Times,serif" font-size="14.00" fill="#000000">next = 0x560661e675c0</text>
</g>
<!-- elem_zero&#45;&gt;elem_0 -->
<g id="edge1" class="edge">
<title>elem_zero&#45;&gt;elem_0</title>
<path fill="none" stroke="transparent" d="M286,-913.25C286,-905.36 286,-895.75 286,-886.6"/>
<polygon fill="transparent" stroke="transparent" points="289.5,-886.59 286,-876.59 282.5,-886.59 289.5,-886.59"/>
</g>
<!-- elem_1 -->
<g id="node3" class="node">
<title>elem_1</title>
<polygon fill="#6e7681" stroke="white" points="1.5,-747.5 1.5,-793.5 570.5,-793.5 570.5,-747.5 1.5,-747.5"/>
<text text-anchor="middle" x="98.5" y="-766.8" font-family="Times,serif" font-size="14.00" fill="#000000">prev = 0x560661e678e0</text>
<polyline fill="none" stroke="white" points="195.5,-747.5 195.5,-793.5 "/>
<text text-anchor="middle" x="286.5" y="-778.3" font-family="Times,serif" font-size="14.00" fill="#000000">ptr = 0x560661e675c0</text>
<polyline fill="none" stroke="white" points="195.5,-770.5 377.5,-770.5 "/>
<text text-anchor="middle" x="286.5" y="-755.3" font-family="Times,serif" font-size="14.00" fill="#000000">elem = 0</text>
<polyline fill="none" stroke="white" points="377.5,-747.5 377.5,-793.5 "/>
<text text-anchor="middle" x="474" y="-766.8" font-family="Times,serif" font-size="14.00" fill="#000000">next = 0x560661e675e0</text>
</g>
<!-- elem_0&#45;&gt;elem_1 -->
<g id="edge2" class="edge">
<title>elem_0&#45;&gt;elem_1</title>
<path fill="none" stroke="transparent" d="M286,-830.37C286,-822.15 286,-812.66 286,-803.73"/>
<polygon fill="transparent" stroke="transparent" points="289.5,-803.61 286,-793.61 282.5,-803.61 289.5,-803.61"/>
</g>
<!-- elem_0&#45;&gt;elem_1 -->
<g id="edge12" class="edge">
<title>elem_0:n&#45;&gt;elem_1:n</title>
<path fill="none" stroke="green" d="M427,-830C427,-807.8 460.46,-816.17 470.92,-803.52"/>
<polygon fill="green" stroke="green" points="474.25,-804.59 474,-794 467.59,-802.43 474.25,-804.59"/>
</g>
<!-- elem_1&#45;&gt;elem_0 -->
<g id="edge14" class="edge">
<title>elem_1:p&#45;&gt;elem_0:p</title>
<path fill="none" stroke="blue" d="M98,-794C98,-806 98,-811.25 98,-819.88"/>
<polygon fill="blue" stroke="blue" points="94.5,-820 98,-830 101.5,-820 94.5,-820"/>
</g>
<!-- elem_2 -->
<g id="node4" class="node">
<title>elem_2</title>
<polygon fill="#6e7681" stroke="white" points="1,-664.5 1,-710.5 571,-710.5 571,-664.5 1,-664.5"/>
<text text-anchor="middle" x="97.5" y="-683.8" font-family="Times,serif" font-size="14.00" fill="#000000">prev = 0x560661e675c0</text>
<polyline fill="none" stroke="white" points="194,-664.5 194,-710.5 "/>
<text text-anchor="middle" x="285.5" y="-695.3" font-family="Times,serif" font-size="14.00" fill="#000000">ptr = 0x560661e675e0</text>
<polyline fill="none" stroke="white" points="194,-687.5 377,-687.5 "/>
<text text-anchor="middle" x="285.5" y="-672.3" font-family="Times,serif" font-size="14.00" fill="#000000">elem = 10</text>
<polyline fill="none" stroke="white" points="377,-664.5 377,-710.5 "/>
<text text-anchor="middle" x="474" y="-683.8" font-family="Times,serif" font-size="14.00" fill="#000000">next = 0x560661e67880</text>
</g>
<!-- elem_1&#45;&gt;elem_2 -->
<g id="edge3" class="edge">
<title>elem_1&#45;&gt;elem_2</title>
<path fill="none" stroke="transparent" d="M286,-747.37C286,-739.15 286,-729.66 286,-720.73"/>
<polygon fill="transparent" stroke="transparent" points="289.5,-720.61 286,-710.61 282.5,-720.61 289.5,-720.61"/>
</g>
<!-- elem_1&#45;&gt;elem_2 -->
<g id="edge13" class="edge">
<title>elem_1:n&#45;&gt;elem_2:n</title>
<path fill="none" stroke="green" d="M474,-747C474,-735 474,-729.75 474,-721.12"/>
<polygon fill="green" stroke="green" points="477.5,-721 474,-711 470.5,-721 477.5,-721"/>
</g>
<!-- elem_2&#45;&gt;elem_1 -->
<g id="edge16" class="edge">
<title>elem_2:p&#45;&gt;elem_1:p</title>
<path fill="none" stroke="blue" d="M97,-711C97,-723 97.56,-728.25 97.84,-736.87"/>
<polygon fill="blue" stroke="blue" points="94.35,-737.06 98,-747 101.35,-736.95 94.35,-737.06"/>
</g>
<!-- elem_3 -->
<g id="node5" class="node">
<title>elem_3</title>
<polygon fill="#6e7681" stroke="white" points="0.5,-581.5 0.5,-627.5 571.5,-627.5 571.5,-581.5 0.5,-581.5"/>
<text text-anchor="middle" x="97.5" y="-600.8" font-family="Times,serif" font-size="14.00" fill="#000000">prev = 0x560661e675e0</text>
<polyline fill="none" stroke="white" points="194.5,-581.5 194.5,-627.5 "/>
<text text-anchor="middle" x="286.5" y="-612.3" font-family="Times,serif" font-size="14.00" fill="#000000">ptr = 0x560661e67880</text>
<polyline fill="none" stroke="white" points="194.5,-604.5 378.5,-604.5 "/>
<text text-anchor="middle" x="286.5" y="-589.3" font-family="Times,serif" font-size="14.00" fill="#000000">elem = 70</text>
<polyline fill="none" stroke="white" points="378.5,-581.5 378.5,-627.5 "/>
<text text-anchor="middle" x="475" y="-600.8" font-family="Times,serif" font-size="14.00" fill="#000000">next = 0x560661e678a0</text>
</g>
<!-- elem_2&#45;&gt;elem_3 -->
<g id="edge4" class="edge">
<title>elem_2&#45;&gt;elem_3</title>
<path fill="none" stroke="transparent" d="M286,-664.37C286,-656.15 286,-646.66 286,-637.73"/>
<polygon fill="transparent" stroke="transparent" points="289.5,-637.61 286,-627.61 282.5,-637.61 289.5,-637.61"/>
</g>
<!-- elem_2&#45;&gt;elem_3 -->
<g id="edge15" class="edge">
<title>elem_2:n&#45;&gt;elem_3:n</title>
<path fill="none" stroke="green" d="M474,-664C474,-652 474.56,-646.75 474.84,-638.13"/>
<polygon fill="green" stroke="green" points="478.35,-638.05 475,-628 471.35,-637.94 478.35,-638.05"/>
</g>
<!-- elem_3&#45;&gt;elem_2 -->
<g id="edge18" class="edge">
<title>elem_3:p&#45;&gt;elem_2:p</title>
<path fill="none" stroke="blue" d="M97,-628C97,-640 97,-645.25 97,-653.88"/>
<polygon fill="blue" stroke="blue" points="93.5,-654 97,-664 100.5,-654 93.5,-654"/>
</g>
<!-- elem_4 -->
<g id="node6" class="node">
<title>elem_4</title>
<polygon fill="#6e7681" stroke="white" points="1.5,-498.5 1.5,-544.5 570.5,-544.5 570.5,-498.5 1.5,-498.5"/>
<text text-anchor="middle" x="98.5" y="-517.8" font-family="Times,serif" font-size="14.00" fill="#000000">prev = 0x560661e67880</text>
<polyline fill="none" stroke="white" points="195.5,-498.5 195.5,-544.5 "/>
<text text-anchor="middle" x="287" y="-529.3" font-family="Times,serif" font-size="14.00" fill="#000000">ptr = 0x560661e678a0</text>
<polyline fill="none" stroke="white" points="195.5,-521.5 378.5,-521.5 "/>
<text text-anchor="middle" x="287" y="-506.3" font-family="Times,serif" font-size="14.00" fill="#000000">elem = 80</text>
<polyline fill="none" stroke="white" points="378.5,-498.5 378.5,-544.5 "/>
<text text-anchor="middle" x="474.5" y="-517.8" font-family="Times,serif" font-size="14.00" fill="#000000">next = 0x560661e678c0</text>
</g>
<!-- elem_3&#45;&gt;elem_4 -->
<g id="edge5" class="edge">
<title>elem_3&#45;&gt;elem_4</title>
<path fill="none" stroke="transparent" d="M286,-581.37C286,-573.15 286,-563.66 286,-554.73"/>
<polygon fill="transparent" stroke="transparent" points="289.5,-554.61 286,-544.61 282.5,-554.61 289.5,-554.61"/>
</g>
<!-- elem_3&#45;&gt;elem_4 -->
<g id="edge17" class="edge">
<title>elem_3:n&#45;&gt;elem_4:n</title>
<path fill="none" stroke="green" d="M475,-581C475,-569 475,-563.75 475,-555.12"/>
<polygon fill="green" stroke="green" points="478.5,-555 475,-545 471.5,-555 478.5,-555"/>
</g>
<!-- elem_4&#45;&gt;elem_3 -->
<g id="edge20" class="edge">
<title>elem_4:p&#45;&gt;elem_3:p</title>
<path fill="none" stroke="blue" d="M98,-545C98,-557 97.44,-562.25 97.16,-570.87"/>
<polygon fill="blue" stroke="blue" points="93.65,-570.95 97,-581 100.65,-571.06 93.65,-570.95"/>
</g>
<!-- elem_5 -->
<g id="node7" class="node">
<title>elem_5</title>
<polygon fill="#6e7681" stroke="white" points="1,-415.5 1,-461.5 571,-461.5 571,-415.5 1,-415.5"/>
<text text-anchor="middle" x="98" y="-434.8" font-family="Times,serif" font-size="14.00" fill="#000000">prev = 0x560661e678a0</text>
<polyline fill="none" stroke="white" points="195,-415.5 195,-461.5 "/>
<text text-anchor="middle" x="286" y="-446.3" font-family="Times,serif" font-size="14.00" fill="#000000">ptr = 0x560661e678c0</text>
<polyline fill="none" stroke="white" points="195,-438.5 377,-438.5 "/>
<text text-anchor="middle" x="286" y="-423.3" font-family="Times,serif" font-size="14.00" fill="#000000">elem = 90</text>
<polyline fill="none" stroke="white" points="377,-415.5 377,-461.5 "/>
<text text-anchor="middle" x="474" y="-434.8" font-family="Times,serif" font-size="14.00" fill="#000000">next = 0x560661e67860</text>
</g>
<!-- elem_4&#45;&gt;elem_5 -->
<g id="edge6" class="edge">
<title>elem_4&#45;&gt;elem_5</title>
<path fill="none" stroke="transparent" d="M286,-498.37C286,-490.15 286,-480.66 286,-471.73"/>
<polygon fill="transparent" stroke="transparent" points="289.5,-471.61 286,-461.61 282.5,-471.61 289.5,-471.61"/>
</g>
<!-- elem_4&#45;&gt;elem_5 -->
<g id="edge19" class="edge">
<title>elem_4:n&#45;&gt;elem_5:n</title>
<path fill="none" stroke="green" d="M475,-498C475,-486 474.44,-480.75 474.16,-472.13"/>
<polygon fill="green" stroke="green" points="477.65,-471.94 474,-462 470.65,-472.05 477.65,-471.94"/>
</g>
<!-- elem_5&#45;&gt;elem_4 -->
<g id="edge22" class="edge">
<title>elem_5:p&#45;&gt;elem_4:p</title>
<path fill="none" stroke="blue" d="M98,-462C98,-474 98,-479.25 98,-487.88"/>
<polygon fill="blue" stroke="blue" points="94.5,-488 98,-498 101.5,-488 94.5,-488"/>
</g>
<!-- elem_6 -->
<g id="node8" class="node">
<title>elem_6</title>
<polygon fill="#6e7681" stroke="white" points="0.5,-332.5 0.5,-378.5 571.5,-378.5 571.5,-332.5 0.5,-332.5"/>
<text text-anchor="middle" x="97" y="-351.8" font-family="Times,serif" font-size="14.00" fill="#000000">prev = 0x560661e678c0</text>
<polyline fill="none" stroke="white" points="193.5,-332.5 193.5,-378.5 "/>
<text text-anchor="middle" x="285.5" y="-363.3" font-family="Times,serif" font-size="14.00" fill="#000000">ptr = 0x560661e67860</text>
<polyline fill="none" stroke="white" points="193.5,-355.5 377.5,-355.5 "/>
<text text-anchor="middle" x="285.5" y="-340.3" font-family="Times,serif" font-size="14.00" fill="#000000">elem = 60</text>
<polyline fill="none" stroke="white" points="377.5,-332.5 377.5,-378.5 "/>
<text text-anchor="middle" x="474.5" y="-351.8" font-family="Times,serif" font-size="14.00" fill="#000000">next = 0x560661e67840</text>
</g>
<!-- elem_5&#45;&gt;elem_6 -->
<g id="edge7" class="edge">
<title>elem_5&#45;&gt;elem_6</title>
<path fill="none" stroke="transparent" d="M286,-415.37C286,-407.15 286,-397.66 286,-388.73"/>
<polygon fill="transparent" stroke="transparent" points="289.5,-388.61 286,-378.61 282.5,-388.61 289.5,-388.61"/>
</g>
<!-- elem_5&#45;&gt;elem_6 -->
<g id="edge21" class="edge">
<title>elem_5:n&#45;&gt;elem_6:n</title>
<path fill="none" stroke="green" d="M474,-415C474,-403 474.56,-397.75 474.84,-389.13"/>
<polygon fill="green" stroke="green" points="478.35,-389.05 475,-379 471.35,-388.94 478.35,-389.05"/>
</g>
<!-- elem_6&#45;&gt;elem_5 -->
<g id="edge24" class="edge">
<title>elem_6:p&#45;&gt;elem_5:p</title>
<path fill="none" stroke="blue" d="M97,-379C97,-391 97.56,-396.25 97.84,-404.87"/>
<polygon fill="blue" stroke="blue" points="94.35,-405.06 98,-415 101.35,-404.95 94.35,-405.06"/>
</g>
<!-- elem_7 -->
<g id="node9" class="node">
<title>elem_7</title>
<polygon fill="#6e7681" stroke="white" points="0,-249.5 0,-295.5 572,-295.5 572,-249.5 0,-249.5"/>
<text text-anchor="middle" x="97" y="-268.8" font-family="Times,serif" font-size="14.00" fill="#000000">prev = 0x560661e67860</text>
<polyline fill="none" stroke="white" points="194,-249.5 194,-295.5 "/>
<text text-anchor="middle" x="286" y="-280.3" font-family="Times,serif" font-size="14.00" fill="#000000">ptr = 0x560661e67840</text>
<polyline fill="none" stroke="white" points="194,-272.5 378,-272.5 "/>
<text text-anchor="middle" x="286" y="-257.3" font-family="Times,serif" font-size="14.00" fill="#000000">elem = 50</text>
<polyline fill="none" stroke="white" points="378,-249.5 378,-295.5 "/>
<text text-anchor="middle" x="475" y="-268.8" font-family="Times,serif" font-size="14.00" fill="#000000">next = 0x560661e67820</text>
</g>
<!-- elem_6&#45;&gt;elem_7 -->
<g id="edge8" class="edge">
<title>elem_6&#45;&gt;elem_7</title>
<path fill="none" stroke="transparent" d="M286,-332.37C286,-324.15 286,-314.66 286,-305.73"/>
<polygon fill="transparent" stroke="transparent" points="289.5,-305.61 286,-295.61 282.5,-305.61 289.5,-305.61"/>
</g>
<!-- elem_6&#45;&gt;elem_7 -->
<g id="edge23" class="edge">
<title>elem_6:n&#45;&gt;elem_7:n</title>
<path fill="none" stroke="green" d="M475,-332C475,-320 475,-314.75 475,-306.12"/>
<polygon fill="green" stroke="green" points="478.5,-306 475,-296 471.5,-306 478.5,-306"/>
</g>
<!-- elem_7&#45;&gt;elem_6 -->
<g id="edge26" class="edge">
<title>elem_7:p&#45;&gt;elem_6:p</title>
<path fill="none" stroke="blue" d="M97,-296C97,-308 97,-313.25 97,-321.88"/>
<polygon fill="blue" stroke="blue" points="93.5,-322 97,-332 100.5,-322 93.5,-322"/>
</g>
<!-- elem_8 -->
<g id="node10" class="node">
<title>elem_8</title>
<polygon fill="#6e7681" stroke="white" points="0,-166.5 0,-212.5 572,-212.5 572,-166.5 0,-166.5"/>
<text text-anchor="middle" x="97" y="-185.8" font-family="Times,serif" font-size="14.00" fill="#000000">prev = 0x560661e67840</text>
<polyline fill="none" stroke="white" points="194,-166.5 194,-212.5 "/>
<text text-anchor="middle" x="286" y="-197.3" font-family="Times,serif" font-size="14.00" fill="#000000">ptr = 0x560661e67820</text>
<polyline fill="none" stroke="white" points="194,-189.5 378,-189.5 "/>
<text text-anchor="middle" x="286" y="-174.3" font-family="Times,serif" font-size="14.00" fill="#000000">elem = 20</text>
<polyline fill="none" stroke="white" points="378,-166.5 378,-212.5 "/>
<text text-anchor="middle" x="475" y="-185.8" font-family="Times,serif" font-size="14.00" fill="#000000">next = 0x560661e67800</text>
</g>
<!-- elem_7&#45;&gt;elem_8 -->
<g id="edge9" class="edge">
<title>elem_7&#45;&gt;elem_8</title>
<path fill="none" stroke="transparent" d="M286,-249.37C286,-241.15 286,-231.66 286,-222.73"/>
<polygon fill="transparent" stroke="transparent" points="289.5,-222.61 286,-212.61 282.5,-222.61 289.5,-222.61"/>
</g>
<!-- elem_7&#45;&gt;elem_8 -->
<g id="edge25" class="edge">
<title>elem_7:n&#45;&gt;elem_8:n</title>
<path fill="none" stroke="green" d="M475,-249C475,-237 475,-231.75 475,-223.12"/>
<polygon fill="green" stroke="green" points="478.5,-223 475,-213 471.5,-223 478.5,-223"/>
</g>
<!-- elem_8&#45;&gt;elem_7 -->
<g id="edge28" class="edge">
<title>elem_8:p&#45;&gt;elem_7:p</title>
<path fill="none" stroke="blue" d="M97,-213C97,-225 97,-230.25 97,-238.88"/>
<polygon fill="blue" stroke="blue" points="93.5,-239 97,-249 100.5,-239 93.5,-239"/>
</g>
<!-- elem_9 -->
<g id="node11" class="node">
<title>elem_9</title>
<polygon fill="#6e7681" stroke="white" points="0,-83.5 0,-129.5 572,-129.5 572,-83.5 0,-83.5"/>
<text text-anchor="middle" x="97" y="-102.8" font-family="Times,serif" font-size="14.00" fill="#000000">prev = 0x560661e67820</text>
<polyline fill="none" stroke="white" points="194,-83.5 194,-129.5 "/>
<text text-anchor="middle" x="286" y="-114.3" font-family="Times,serif" font-size="14.00" fill="#000000">ptr = 0x560661e67800</text>
<polyline fill="none" stroke="white" points="194,-106.5 378,-106.5 "/>
<text text-anchor="middle" x="286" y="-91.3" font-family="Times,serif" font-size="14.00" fill="#000000">elem = 15</text>
<polyline fill="none" stroke="white" points="378,-83.5 378,-129.5 "/>
<text text-anchor="middle" x="475" y="-102.8" font-family="Times,serif" font-size="14.00" fill="#000000">next = 0x560661e67600</text>
</g>
<!-- elem_8&#45;&gt;elem_9 -->
<g id="edge10" class="edge">
<title>elem_8&#45;&gt;elem_9</title>
<path fill="none" stroke="transparent" d="M286,-166.37C286,-158.15 286,-148.66 286,-139.73"/>
<polygon fill="transparent" stroke="transparent" points="289.5,-139.61 286,-129.61 282.5,-139.61 289.5,-139.61"/>
</g>
<!-- elem_8&#45;&gt;elem_9 -->
<g id="edge27" class="edge">
<title>elem_8:n&#45;&gt;elem_9:n</title>
<path fill="none" stroke="green" d="M475,-166C475,-154 475,-148.75 475,-140.12"/>
<polygon fill="green" stroke="green" points="478.5,-140 475,-130 471.5,-140 478.5,-140"/>
</g>
<!-- elem_9&#45;&gt;elem_8 -->
<g id="edge30" class="edge">
<title>elem_9:p&#45;&gt;elem_8:p</title>
<path fill="none" stroke="blue" d="M97,-130C97,-142 97,-147.25 97,-155.88"/>
<polygon fill="blue" stroke="blue" points="93.5,-156 97,-166 100.5,-156 93.5,-156"/>
</g>
<!-- elem_10 -->
<g id="node12" class="node">
<title>elem_10</title>
<polygon fill="#6e7681" stroke="white" points="48,-0.5 48,-46.5 524,-46.5 524,-0.5 48,-0.5"/>
<text text-anchor="middle" x="145" y="-19.8" font-family="Times,serif" font-size="14.00" fill="#000000">prev = 0x560661e67800</text>
<polyline fill="none" stroke="white" points="242,-0.5 242,-46.5 "/>
<text text-anchor="middle" x="334" y="-31.3" font-family="Times,serif" font-size="14.00" fill="#000000">ptr = 0x560661e67600</text>
<polyline fill="none" stroke="white" points="242,-23.5 426,-23.5 "/>
<text text-anchor="middle" x="334" y="-8.3" font-family="Times,serif" font-size="14.00" fill="#000000">elem = 20</text>
<polyline fill="none" stroke="white" points="426,-0.5 426,-46.5 "/>
<text text-anchor="middle" x="475" y="-19.8" font-family="Times,serif" font-size="14.00" fill="#000000">next = (nil)</text>
</g>
<!-- elem_9&#45;&gt;elem_10 -->
<g id="edge11" class="edge">
<title>elem_9&#45;&gt;elem_10</title>
<path fill="none" stroke="transparent" d="M286,-83.37C286,-75.15 286,-65.66 286,-56.73"/>
<polygon fill="transparent" stroke="transparent" points="289.5,-56.61 286,-46.61 282.5,-56.61 289.5,-56.61"/>
</g>
<!-- elem_9&#45;&gt;elem_10 -->
<g id="edge29" class="edge">
<title>elem_9:n&#45;&gt;elem_10:n</title>
<path fill="none" stroke="green" d="M475,-83C475,-71 475,-65.75 475,-57.12"/>
<polygon fill="green" stroke="green" points="478.5,-57 475,-47 471.5,-57 478.5,-57"/>
</g>
<!-- elem_10&#45;&gt;elem_9 -->
<g id="edge31" class="edge">
<title>elem_10:p&#45;&gt;elem_9:p</title>
<path fill="none" stroke="blue" d="M145,-47C145,-69.5 110.83,-60.68 100.15,-73.39"/>
<polygon fill="blue" stroke="blue" points="96.79,-72.41 97,-83 103.44,-74.59 96.79,-72.41"/>
</g>
<!-- head -->
<g id="node13" class="node">
<title>head</title>
<polygon fill="#7293ba" stroke="yellow" points="630,-871.5 570,-871.5 570,-835.5 630,-835.5 630,-871.5"/>
<text text-anchor="middle" x="600" y="-849.8" font-family="Times,serif" font-size="14.00" fill="#000000">HEAD</text>
</g>
<!-- tail -->
<g id="node14" class="node">
<title>tail</title>
<polygon fill="#7293ba" stroke="yellow" points="627,-41.5 573,-41.5 573,-5.5 627,-5.5 627,-41.5"/>
<text text-anchor="middle" x="600" y="-19.8" font-family="Times,serif" font-size="14.00" fill="#000000">TAIL</text>
</g>
<!-- head&#45;&gt;tail -->
<g id="edge32" class="edge">
<title>head&#45;&gt;tail</title>
<path fill="none" stroke="transparent" d="M600,-835.26C600,-805.38 600,-742.03 600,-688.5 600,-688.5 600,-688.5 600,-188.5 600,-140.41 600,-84.38 600,-51.83"/>
<polygon fill="transparent" stroke="transparent" points="603.5,-51.74 600,-41.74 596.5,-51.74 603.5,-51.74"/>
</g>
</g>
</svg>
